<?xml version="1.0" encoding="UTF-8" standalone="no"?>
<!-- Created with Inkscape (http://www.inkscape.org/) -->

<svg
   version="1.1"
   id="svg7847"
   width="659.56"
   height="389.33334"
   viewBox="0 0 659.56 389.33334"
   sodipodi:docname="blackbox.svg"
   inkscape:version="1.2.1 (9c6d41e410, 2022-07-14, custom)"
   xmlns:inkscape="http://www.inkscape.org/namespaces/inkscape"
   xmlns:sodipodi="http://sodipodi.sourceforge.net/DTD/sodipodi-0.dtd"
   xmlns="http://www.w3.org/2000/svg"
   xmlns:svg="http://www.w3.org/2000/svg">
  <defs
     id="defs7851" />
  <sodipodi:namedview
     id="namedview7849"
     pagecolor="#ffffff"
     bordercolor="#666666"
     borderopacity="1.0"
     inkscape:showpageshadow="2"
     inkscape:pageopacity="0.0"
     inkscape:pagecheckerboard="0"
     inkscape:deskcolor="#d1d1d1"
     showgrid="false"
     showguides="false"
     inkscape:zoom="1.63549"
     inkscape:cx="309.99884"
     inkscape:cy="225.92618"
     inkscape:window-width="1920"
     inkscape:window-height="1080"
     inkscape:window-x="0"
     inkscape:window-y="0"
     inkscape:window-maximized="1"
     inkscape:current-layer="g7855">
    <inkscape:page
       x="0"
       y="0"
       id="page7853"
       width="659.56"
       height="389.33334" />
  </sodipodi:namedview>
  <g
     id="g7855"
     inkscape:groupmode="layer"
     inkscape:label="Page 1"
     transform="matrix(1.3333333,0,0,-1.3333333,0,389.33333)">
    <g
       id="g8735"
       class="fragment fade-in"
       data-fragment-index="3">
      <path
         d="m 350.696,157.788 h 9.942 v -4.324 l 9.885,5.698 -9.885,5.698 v -4.323 h -9.942 v -2.749"
         style="fill:#231f20;fill-opacity:1;fill-rule:nonzero;stroke:none;stroke-width:0.1"
         id="path7895" />
      <path
         d="m 478.105,104.913 h -89.333 c -5.363,0 -9.75,4.388 -9.75,9.75 v 95.583 c 0,5.363 4.387,9.75 9.75,9.75 h 89.333 c 5.363,0 9.75,-4.387 9.75,-9.75 v -95.583 c 0,-5.362 -4.387,-9.75 -9.75,-9.75"
         style="fill:#f8f8fa;fill-opacity:1;fill-rule:nonzero;stroke:none;stroke-width:0.1"
         id="path7897" />
      <g
         id="g7899">
        <text
           xml:space="preserve"
           transform="matrix(1,0,0,-1,410.334,193.152)"
           style="font-variant:normal;font-weight:300;font-size:12px;font-family:Lato;-inkscape-font-specification:Lato-Light;writing-mode:lr-tb;fill:#231f20;fill-opacity:1;fill-rule:nonzero;stroke:none"
           id="text7903"><tspan
             x="0 7.1997228 9.8696308 14.969631 20.681631 23.939442"
             y="0"
             sodipodi:role="line"
             id="tspan7901">Risk 4</tspan></text>
      </g>
      <g
         id="g7905">
        <text
           xml:space="preserve"
           transform="matrix(1,0,0,-1,419.233,145.045)"
           style="font-variant:normal;font-weight:300;font-size:36px;font-family:Lato;-inkscape-font-specification:Lato-Light;writing-mode:lr-tb;fill:#e2e744;fill-opacity:1;fill-rule:nonzero;stroke:#231f20;stroke-width:2;stroke-linecap:butt;stroke-linejoin:miter;stroke-miterlimit:10;stroke-dasharray:none;stroke-opacity:1"
           id="text7909"><tspan
             x="0"
             y="0"
             id="tspan7907">X</tspan></text>
      </g>
      <g
         id="g7919">
        <text
           xml:space="preserve"
           transform="matrix(1,0,0,-1,446.683,136.55)"
           style="font-variant:normal;font-weight:300;font-size:12px;font-family:Lato;-inkscape-font-specification:Lato-Light;writing-mode:lr-tb;fill:#e2e744;fill-opacity:1;fill-rule:nonzero;stroke:#231f20;stroke-width:2;stroke-linecap:butt;stroke-linejoin:miter;stroke-miterlimit:10;stroke-dasharray:none;stroke-opacity:1"
           id="text7923"><tspan
             x="0 2.664 5.2919998 8.5439997 15.504"
             y="0"
             sodipodi:role="line"
             id="tspan7921">i, 80</tspan></text>
      </g>
      <g
         id="g7925">
        <text
           xml:space="preserve"
           transform="matrix(1,0,0,-1,446.683,167.889)"
           style="font-variant:normal;font-weight:300;font-size:12px;font-family:Lato;-inkscape-font-specification:Lato-Light;writing-mode:lr-tb;fill:#e2e744;fill-opacity:1;fill-rule:nonzero;stroke:#231f20;stroke-width:2;stroke-linecap:butt;stroke-linejoin:miter;stroke-miterlimit:10;stroke-dasharray:none;stroke-opacity:1"
           id="text7929"><tspan
             x="0 4.1098595"
             y="0"
             sodipodi:role="line"
             id="tspan7927">t </tspan></text>
      </g>
    </g>
    <g
       id="g8702"
       class="fragment fade-in"
       data-fragment-index="1">
      <path
         d="M 102.414,203.558 H 58.2477 c -5.3625,0 -9.75,4.388 -9.75,9.75 v 62.362 c 0,5.362 4.3875,9.75 9.75,9.75 h 44.1663 c 5.363,0 9.75,-4.388 9.75,-9.75 v -62.362 c 0,-5.362 -4.387,-9.75 -9.75,-9.75"
         style="fill:#f8f8fa;fill-opacity:1;fill-rule:nonzero;stroke:none;stroke-width:0.1"
         id="path7859" />
      <path
         d="m 83.3309,225.074 c 0,-1.657 -1.343,-3 -3,-3 -1.6567,0 -3,1.343 -3,3 0,1.657 1.3433,3 3,3 1.657,0 3,-1.343 3,-3"
         style="fill:#231f20;fill-opacity:1;fill-rule:nonzero;stroke:none;stroke-width:0.1"
         id="path7861" />
      <path
         d="m 83.3309,216.991 c 0,-1.657 -1.343,-3 -3,-3 -1.6567,0 -3,1.343 -3,3 0,1.657 1.3433,3 3,3 1.657,0 3,-1.343 3,-3"
         style="fill:#231f20;fill-opacity:1;fill-rule:nonzero;stroke:none;stroke-width:0.1"
         id="path7863" />
      <path
         d="m 83.3309,208.324 c 0,-1.657 -1.343,-3 -3,-3 -1.6567,0 -3,1.343 -3,3 0,1.657 1.3433,3 3,3 1.657,0 3,-1.343 3,-3"
         style="fill:#231f20;fill-opacity:1;fill-rule:nonzero;stroke:none;stroke-width:0.1"
         id="path7865" />
      <g
         id="g7867">
        <text
           xml:space="preserve"
           transform="matrix(1,0,0,-1,71.0043,256.515)"
           style="font-variant:normal;font-weight:300;font-size:9px;font-family:Lato;-inkscape-font-specification:Lato-Light;writing-mode:lr-tb;fill:#231f20;fill-opacity:1;fill-rule:nonzero;stroke:none"
           id="text7871"><tspan
             x="0"
             y="0"
             id="tspan7869">X</tspan></text>
      </g>
      <g
         id="g7913">
        <text
           xml:space="preserve"
           transform="matrix(1,0,0,-1,6.4332,241.207)"
           style="font-variant:normal;font-weight:300;font-size:9px;font-family:Lato;-inkscape-font-specification:Lato-Light;writing-mode:lr-tb;fill:#231f20;fill-opacity:1;fill-rule:nonzero;stroke:none"
           id="text7917"><tspan
             x="0 3.0780001 6.408"
             y="0"
             sodipodi:role="line"
             id="tspan7915">t-3</tspan></text>
      </g>
      <g
         id="g7931">
        <text
           xml:space="preserve"
           transform="matrix(1,0,0,-1,77.4836,252.799)"
           style="font-variant:normal;font-weight:300;font-size:7px;font-family:Lato;-inkscape-font-specification:Lato-Light;writing-mode:lr-tb;fill:#231f20;fill-opacity:1;fill-rule:nonzero;stroke:none"
           id="text7937"><tspan
             x="0 1.5576193 3.0906193"
             y="0"
             sodipodi:role="line"
             id="tspan7933">i,2</tspan><tspan
             x="-0.94843799 1.445562 4.035562"
             y="-9.4886703"
             sodipodi:role="line"
             id="tspan7935">t-3</tspan></text>
        <text
           xml:space="preserve"
           transform="matrix(1,0,0,-1,6.433162,159.86767)"
           style="font-variant:normal;font-weight:300;font-size:9px;font-family:Lato;-inkscape-font-specification:Lato-Light;writing-mode:lr-tb;fill:#231f20;fill-opacity:1;fill-rule:nonzero;stroke:none"
           id="text7945"><tspan
             x="0 3.0780001 6.408"
             y="0"
             sodipodi:role="line"
             id="tspan7939">t-2</tspan><tspan
             x="0 3.0780001 6.408"
             y="83.327003"
             sodipodi:role="line"
             id="tspan7941">t-1</tspan><tspan
             x="63.571098"
             y="-77.619003"
             id="tspan7943">X</tspan></text>
        <text
           xml:space="preserve"
           transform="matrix(1,0,0,-1,76.483562,233.77026)"
           style="font-variant:normal;font-weight:300;font-size:7px;font-family:Lato;-inkscape-font-specification:Lato-Light;writing-mode:lr-tb;fill:#231f20;fill-opacity:1;fill-rule:nonzero;stroke:none"
           id="text7951"><tspan
             x="0 1.5576193 3.0906193"
             y="0"
             sodipodi:role="line"
             id="tspan7947">i,3</tspan><tspan
             x="-0.94843799 1.445562 4.035562"
             y="-9.4886703"
             sodipodi:role="line"
             id="tspan7949">t-3</tspan></text>
        <text
           xml:space="preserve"
           transform="matrix(1,0,0,-1,71.004264,272.34763)"
           style="font-variant:normal;font-weight:300;font-size:9px;font-family:Lato;-inkscape-font-specification:Lato-Light;writing-mode:lr-tb;fill:#231f20;fill-opacity:1;fill-rule:nonzero;stroke:none"
           id="text7955"><tspan
             x="0"
             y="0"
             id="tspan7953">X</tspan></text>
        <text
           xml:space="preserve"
           transform="matrix(1,0,0,-1,77.483564,268.63161)"
           style="font-variant:normal;font-weight:300;font-size:7px;font-family:Lato;-inkscape-font-specification:Lato-Light;writing-mode:lr-tb;fill:#231f20;fill-opacity:1;fill-rule:nonzero;stroke:none"
           id="text7961"><tspan
             x="0 1.5576193 3.0906193"
             y="0"
             sodipodi:role="line"
             id="tspan7957">i,1</tspan><tspan
             x="-0.94843799 1.445562 4.035562"
             y="-9.4886703"
             sodipodi:role="line"
             id="tspan7959">t-3</tspan></text>
      </g>
      <path
         d="M 103.142,118.833 H 58.9754 c -5.3625,0 -9.75,4.387 -9.75,9.75 v 62.361 c 0,5.362 4.3875,9.75 9.75,9.75 h 44.1666 c 5.362,0 9.75,-4.388 9.75,-9.75 v -62.361 c 0,-5.363 -4.388,-9.75 -9.75,-9.75"
         style="fill:#f8f8fa;fill-opacity:1;fill-rule:nonzero;stroke:none;stroke-width:0.1"
         id="path7963" />
      <path
         d="m 84.0586,140.348 c 0,-1.657 -1.343,-3 -3,-3 -1.6566,0 -3,1.343 -3,3 0,1.657 1.3434,3 3,3 1.657,0 3,-1.343 3,-3"
         style="fill:#231f20;fill-opacity:1;fill-rule:nonzero;stroke:none;stroke-width:0.1"
         id="path7965" />
      <path
         d="m 84.0586,132.265 c 0,-1.657 -1.343,-3 -3,-3 -1.6566,0 -3,1.343 -3,3 0,1.657 1.3434,3 3,3 1.657,0 3,-1.343 3,-3"
         style="fill:#231f20;fill-opacity:1;fill-rule:nonzero;stroke:none;stroke-width:0.1"
         id="path7967" />
      <path
         d="m 84.0586,123.598 c 0,-1.657 -1.343,-3 -3,-3 -1.6566,0 -3,1.343 -3,3 0,1.657 1.3434,3 3,3 1.657,0 3,-1.343 3,-3"
         style="fill:#231f20;fill-opacity:1;fill-rule:nonzero;stroke:none;stroke-width:0.1"
         id="path7969" />
      <g
         id="g7971">
        <text
           xml:space="preserve"
           transform="matrix(1,0,0,-1,71.732,171.79)"
           style="font-variant:normal;font-weight:300;font-size:9px;font-family:Lato;-inkscape-font-specification:Lato-Light;writing-mode:lr-tb;fill:#231f20;fill-opacity:1;fill-rule:nonzero;stroke:none"
           id="text7975"><tspan
             x="0"
             y="0"
             id="tspan7973">X</tspan></text>
        <text
           xml:space="preserve"
           transform="matrix(1,0,0,-1,78.21091,168.0732)"
           style="font-variant:normal;font-weight:300;font-size:7px;font-family:Lato;-inkscape-font-specification:Lato-Light;writing-mode:lr-tb;fill:#231f20;fill-opacity:1;fill-rule:nonzero;stroke:none"
           id="text7981"><tspan
             x="0 1.5576193 3.0906193"
             y="0"
             sodipodi:role="line"
             id="tspan7977">i,2</tspan><tspan
             x="-0.94804698 1.445953 4.035953"
             y="-9.4890604"
             sodipodi:role="line"
             id="tspan7979">t-3</tspan></text>
        <text
           xml:space="preserve"
           transform="matrix(1,0,0,-1,70.732003,152.76106)"
           style="font-variant:normal;font-weight:300;font-size:9px;font-family:Lato;-inkscape-font-specification:Lato-Light;writing-mode:lr-tb;fill:#231f20;fill-opacity:1;fill-rule:nonzero;stroke:none"
           id="text7985"><tspan
             x="0"
             y="0"
             id="tspan7983">X</tspan></text>
        <text
           xml:space="preserve"
           transform="matrix(1,0,0,-1,77.210913,149.04504)"
           style="font-variant:normal;font-weight:300;font-size:7px;font-family:Lato;-inkscape-font-specification:Lato-Light;writing-mode:lr-tb;fill:#231f20;fill-opacity:1;fill-rule:nonzero;stroke:none"
           id="text7991"><tspan
             x="0 1.5576193 3.0906193"
             y="0"
             sodipodi:role="line"
             id="tspan7987">i,3</tspan><tspan
             x="-0.94804698 1.445953 4.035953"
             y="-9.4890604"
             sodipodi:role="line"
             id="tspan7989">t-3</tspan></text>
        <text
           xml:space="preserve"
           transform="matrix(1,0,0,-1,71.732006,187.6232)"
           style="font-variant:normal;font-weight:300;font-size:9px;font-family:Lato;-inkscape-font-specification:Lato-Light;writing-mode:lr-tb;fill:#231f20;fill-opacity:1;fill-rule:nonzero;stroke:none"
           id="text7995"><tspan
             x="0"
             y="0"
             id="tspan7993">X</tspan></text>
        <text
           xml:space="preserve"
           transform="matrix(1,0,0,-1,78.210916,183.90601)"
           style="font-variant:normal;font-weight:300;font-size:7px;font-family:Lato;-inkscape-font-specification:Lato-Light;writing-mode:lr-tb;fill:#231f20;fill-opacity:1;fill-rule:nonzero;stroke:none"
           id="text8001"><tspan
             x="0 1.5576193 3.0906193"
             y="0"
             sodipodi:role="line"
             id="tspan7997">i,1</tspan><tspan
             x="-0.94804698 1.445953 4.035953"
             y="-9.4898396"
             sodipodi:role="line"
             id="tspan7999">t-3</tspan></text>
      </g>
      <path
         d="M 105.414,33.0621 H 61.2477 c -5.3625,0 -9.75,4.3879 -9.75,9.75 v 62.3609 c 0,5.363 4.3875,9.75 9.75,9.75 h 44.1663 c 5.363,0 9.75,-4.387 9.75,-9.75 V 42.8121 c 0,-5.3621 -4.387,-9.75 -9.75,-9.75"
         style="fill:#f8f8fa;fill-opacity:1;fill-rule:nonzero;stroke:none;stroke-width:0.1"
         id="path8003" />
      <path
         d="m 86.3309,54.5781 c 0,-1.657 -1.343,-3 -3,-3 -1.6567,0 -3,1.343 -3,3 0,1.6571 1.3433,3 3,3 1.657,0 3,-1.3429 3,-3"
         style="fill:#231f20;fill-opacity:1;fill-rule:nonzero;stroke:none;stroke-width:0.1"
         id="path8005" />
      <path
         d="m 86.3309,46.4949 c 0,-1.657 -1.343,-3 -3,-3 -1.6567,0 -3,1.343 -3,3 0,1.6571 1.3433,3 3,3 1.657,0 3,-1.3429 3,-3"
         style="fill:#231f20;fill-opacity:1;fill-rule:nonzero;stroke:none;stroke-width:0.1"
         id="path8007" />
      <path
         d="m 86.3309,37.8281 c 0,-1.657 -1.343,-3 -3,-3 -1.6567,0 -3,1.343 -3,3 0,1.6571 1.3433,3 3,3 1.657,0 3,-1.3429 3,-3"
         style="fill:#231f20;fill-opacity:1;fill-rule:nonzero;stroke:none;stroke-width:0.1"
         id="path8009" />
      <g
         id="g8011">
        <text
           xml:space="preserve"
           transform="matrix(1,0,0,-1,74.0043,86.0191)"
           style="font-variant:normal;font-weight:300;font-size:9px;font-family:Lato;-inkscape-font-specification:Lato-Light;writing-mode:lr-tb;fill:#231f20;fill-opacity:1;fill-rule:nonzero;stroke:none"
           id="text8015"><tspan
             x="0"
             y="0"
             id="tspan8013">X</tspan></text>
        <text
           xml:space="preserve"
           transform="matrix(1,0,0,-1,80.4836,82.30308)"
           style="font-variant:normal;font-weight:300;font-size:7px;font-family:Lato;-inkscape-font-specification:Lato-Light;writing-mode:lr-tb;fill:#231f20;fill-opacity:1;fill-rule:nonzero;stroke:none"
           id="text8021"><tspan
             x="0 1.5576193 3.0906193"
             y="0"
             sodipodi:role="line"
             id="tspan8017">i,2</tspan><tspan
             x="-0.94843799 1.445562 4.035562"
             y="-9.4890604"
             sodipodi:role="line"
             id="tspan8019">t-3</tspan></text>
        <text
           xml:space="preserve"
           transform="matrix(1,0,0,-1,73.004302,66.99094)"
           style="font-variant:normal;font-weight:300;font-size:9px;font-family:Lato;-inkscape-font-specification:Lato-Light;writing-mode:lr-tb;fill:#231f20;fill-opacity:1;fill-rule:nonzero;stroke:none"
           id="text8025"><tspan
             x="0"
             y="0"
             id="tspan8023">X</tspan></text>
        <text
           xml:space="preserve"
           transform="matrix(1,0,0,-1,79.483602,63.27492)"
           style="font-variant:normal;font-weight:300;font-size:7px;font-family:Lato;-inkscape-font-specification:Lato-Light;writing-mode:lr-tb;fill:#231f20;fill-opacity:1;fill-rule:nonzero;stroke:none"
           id="text8031"><tspan
             x="0 1.5576193 3.0906193"
             y="0"
             sodipodi:role="line"
             id="tspan8027">i,3</tspan><tspan
             x="-0.94843799 1.445562 4.035562"
             y="-9.4890604"
             sodipodi:role="line"
             id="tspan8029">t-3</tspan></text>
        <text
           xml:space="preserve"
           transform="matrix(1,0,0,-1,74.004304,101.85308)"
           style="font-variant:normal;font-weight:300;font-size:9px;font-family:Lato;-inkscape-font-specification:Lato-Light;writing-mode:lr-tb;fill:#231f20;fill-opacity:1;fill-rule:nonzero;stroke:none"
           id="text8035"><tspan
             x="0"
             y="0"
             id="tspan8033">X</tspan></text>
        <text
           xml:space="preserve"
           transform="matrix(1,0,0,-1,80.483604,98.13589)"
           style="font-variant:normal;font-weight:300;font-size:7px;font-family:Lato;-inkscape-font-specification:Lato-Light;writing-mode:lr-tb;fill:#231f20;fill-opacity:1;fill-rule:nonzero;stroke:none"
           id="text8041"><tspan
             x="0 1.5576193 3.0906193"
             y="0"
             sodipodi:role="line"
             id="tspan8037">i,1</tspan><tspan
             x="-0.94843799 1.445562 4.035562"
             y="-9.4890604"
             sodipodi:role="line"
             id="tspan8039">t-3</tspan></text>
      </g>
      <path
         d="m 86.0586,23.4031 c 0,-1.657 -1.3434,-3 -3,-3 -1.657,0 -3,1.343 -3,3 0,1.6571 1.343,3 3,3 1.6566,0 3,-1.3429 3,-3"
         style="fill:#231f20;fill-opacity:1;fill-rule:nonzero;stroke:none;stroke-width:0.1"
         id="path8043" />
      <path
         d="m 86.0586,15.3191 c 0,-1.657 -1.3434,-3 -3,-3 -1.657,0 -3,1.343 -3,3 0,1.6571 1.343,3 3,3 1.6566,0 3,-1.3429 3,-3"
         style="fill:#231f20;fill-opacity:1;fill-rule:nonzero;stroke:none;stroke-width:0.1"
         id="path8045" />
      <path
         d="m 86.0586,6.65313 c 0,-1.65704 -1.3434,-3 -3,-3 -1.657,0 -3,1.34296 -3,3 0,1.65703 1.343,3 3,3 1.6566,0 3,-1.34297 3,-3"
         style="fill:#231f20;fill-opacity:1;fill-rule:nonzero;stroke:none;stroke-width:0.1"
         id="path8047" />
    </g>
    <g
       id="g8719"
       class="fragment fade-in"
       data-fragment-index="2">
      <path
         d="M 346.376,94.332 H 152.613 V 219.957 H 346.376 V 94.332"
         style="fill:#edecec;fill-opacity:1;fill-rule:nonzero;stroke:none;stroke-width:0.1"
         id="path7873" />
      <path
         d="m 281.597,147.771 c -0.018,0.189 -0.309,0.261 -0.356,0.047 -0.044,-0.202 -0.079,-0.408 -0.109,-0.616 0.004,0.487 0.007,0.975 0.006,1.462 -0.005,1.209 -0.015,2.417 -0.04,3.625 -0.051,2.39 -0.095,4.782 -0.162,7.172 -0.018,0.662 -0.041,1.323 -0.07,1.984 -0.015,0.331 -0.028,0.661 -0.052,0.992 -0.025,0.346 -0.022,0.708 -0.118,1.043 -0.041,0.143 -0.227,0.178 -0.322,0.089 -0.044,0.081 -0.128,0.141 -0.252,0.143 -2.086,0.023 -4.175,-0.088 -6.257,-0.199 -0.311,-0.016 -0.623,-0.033 -0.934,-0.051 -0.025,0.121 -0.119,0.221 -0.289,0.217 -2.696,-0.074 -5.393,-0.142 -8.089,-0.227 -2.697,-0.085 -5.394,-0.158 -8.09,-0.258 -0.732,-0.027 -1.466,-0.045 -2.2,-0.073 l -0.174,0.056 c -1.067,0.004 -2.132,-0.059 -3.198,-0.101 -1.066,-0.042 -2.132,-0.097 -3.199,-0.138 -2.133,-0.083 -4.266,-0.147 -6.4,-0.196 -4.243,-0.098 -8.487,-0.11 -12.73,-0.076 -1.194,0.01 -2.389,0.018 -3.583,0.033 -0.584,0.007 -1.168,0.017 -1.752,0.022 -0.496,0.004 -0.995,0.028 -1.489,-0.005 l -0.093,0.045 -0.127,0.063 -0.207,0.046 c -0.143,0.015 -0.286,0.017 -0.429,0.008 -0.296,-0.019 -0.58,-0.082 -0.862,-0.171 -0.159,-0.051 -0.258,-0.185 -0.266,-0.35 -0.022,-0.442 -0.043,-0.888 -0.027,-1.33 0.011,-0.278 0.005,-0.564 0.033,-0.844 -0.036,-0.214 -0.059,-0.431 -0.083,-0.643 -0.051,-0.478 -0.102,-0.956 -0.143,-1.436 -0.081,-0.968 -0.138,-1.941 -0.184,-2.912 -0.091,-1.93 -0.151,-3.862 -0.177,-5.794 -0.053,-3.839 0.024,-7.678 0.24,-11.512 0.05,-0.884 0.108,-1.767 0.173,-2.649 -0.003,-0.24 -0.019,-0.479 -0.011,-0.719 0.013,-0.34 0.027,-0.681 0.046,-1.02 0.039,-0.681 0.077,-1.362 0.113,-2.043 0.022,-0.424 0.042,-0.848 0.06,-1.272 -0.012,-0.197 -0.018,-0.394 -0.025,-0.587 -0.018,-0.54 -0.011,-1.082 0.003,-1.621 0.014,-0.528 0.043,-1.056 0.081,-1.582 0.012,-0.164 0.023,-0.331 0.039,-0.497 0.001,-0.294 0.007,-0.589 0.022,-0.882 0.008,-0.154 0.099,-0.248 0.21,-0.282 l 0.136,-0.058 c 0.405,-0.123 0.817,-0.172 1.237,-0.227 0.436,-0.056 0.871,-0.112 1.309,-0.153 0.861,-0.08 1.723,-0.143 2.586,-0.186 1.701,-0.086 3.409,-0.091 5.109,0.007 0.247,0.014 0.494,0.031 0.741,0.049 1.008,-0.18 2.049,-0.173 3.071,-0.2 1.056,-0.027 2.113,-0.035 3.169,-0.048 2.088,-0.026 4.176,-0.03 6.263,-0.034 4.201,-0.008 8.401,-0.002 12.602,0.057 1.171,0.017 2.342,0.042 3.513,0.066 1.195,0.024 2.402,-0.016 3.589,0.14 0.178,0.023 0.241,0.188 0.185,0.306 0.942,-0.075 1.89,-0.074 2.835,-0.066 1.151,0.009 2.3,0.034 3.449,0.075 2.299,0.083 4.597,0.208 6.889,0.391 1.298,0.104 2.596,0.222 3.89,0.366 0.159,0.018 0.298,0.114 0.328,0.27 l 0.143,0.134 c 0.102,0.715 0.102,1.427 0.095,2.148 -0.006,0.724 -0.01,1.448 -0.011,2.172 -0.002,1.436 -0.002,2.872 0.014,4.308 0.03,2.884 0.11,5.767 0.222,8.649 0.031,0.812 0.066,1.625 0.105,2.437 0.038,0.804 0.079,1.634 0.004,2.436"
         style="fill:#e0e9ee;fill-opacity:1;fill-rule:evenodd;stroke:none;stroke-width:0.1"
         id="path7875" />
      <path
         d="m 227.656,162.221 v 0 c -1.286,-0.037 -2.573,-0.044 -3.86,-0.024 -0.421,0.007 -0.841,0.019 -1.261,0.034 1.706,0.027 3.414,0.022 5.121,-0.01 z m 6.601,-10.003 v 0 l -0.012,0.006 0.016,0.058 z m 30.586,-26.964 -0.042,0.013 c -0.161,0.197 -0.423,0.359 -0.594,0.5 -0.275,0.226 -0.549,0.452 -0.822,0.678 -0.559,0.46 -1.117,0.919 -1.675,1.379 -1.047,0.863 -2.086,1.755 -3.217,2.508 -0.003,0.133 -0.076,0.26 -0.237,0.293 -0.315,0.066 -0.635,0.108 -0.955,0.148 -0.238,0.199 -0.462,0.412 -0.678,0.634 -0.236,0.243 -0.465,0.494 -0.668,0.766 -0.109,0.144 -0.212,0.302 -0.264,0.477 -0.045,0.145 -0.1,0.353 -0.03,0.495 0.129,0.261 -0.249,0.488 -0.393,0.23 -0.102,-0.183 -0.202,-0.381 -0.216,-0.593 -0.014,-0.206 0.038,-0.428 0.114,-0.618 0.167,-0.418 0.441,-0.778 0.723,-1.126 l 0.07,-0.085 c -0.244,0.034 -0.489,0.068 -0.734,0.101 -0.967,0.128 -1.932,0.274 -2.892,0.45 -1.924,0.352 -3.833,0.837 -5.643,1.586 -1.742,0.721 -3.365,1.715 -4.78,2.961 -1.36,1.199 -2.534,2.595 -3.541,4.1 -0.58,0.866 -1.11,1.768 -1.599,2.689 -0.183,0.344 -0.359,0.691 -0.533,1.039 0.454,-0.077 0.916,-0.127 1.377,-0.146 0.481,-0.019 0.97,-0.017 1.446,0.07 0.398,0.073 1.034,0.325 1.027,0.813 -0.002,0.175 -0.148,0.328 -0.327,0.326 -0.19,-0.002 -0.324,-0.12 -0.497,-0.175 -0.152,-0.049 -0.318,-0.092 -0.465,-0.107 -0.307,-0.031 -0.619,-0.037 -0.93,-0.029 l -0.048,0.041 c -0.358,0.268 -0.805,0.447 -1.215,0.62 -0.338,0.142 -0.682,0.27 -1.033,0.379 l -0.144,0.117 c -0.538,0.103 -1.089,0.156 -1.631,0.232 -0.474,0.066 -0.945,0.133 -1.422,0.164 -0.122,0.109 -0.313,0.143 -0.437,-0.006 -0.659,-0.796 -1.067,-1.83 -1.208,-2.848 -0.066,-0.478 -0.042,-1.035 -0.289,-1.465 -0.147,-0.255 -0.381,-0.402 -0.648,-0.443 -0.166,0.11 -0.379,0.153 -0.571,0.218 -0.262,0.09 -0.524,0.18 -0.786,0.27 -0.512,0.175 -1.027,0.345 -1.54,0.517 -0.965,0.323 -1.929,0.651 -2.898,0.962 v 0.039 l -0.175,0.133 -0.075,-0.031 -0.034,-0.002 c 0.085,0.439 0.17,0.877 0.254,1.316 0.206,1.076 0.411,2.153 0.619,3.229 0.032,0.164 -0.045,0.358 -0.225,0.397 -0.674,0.145 -1.344,0.304 -2.01,0.479 -0.319,0.084 -0.64,0.167 -0.956,0.264 -0.194,0.06 -0.442,0.136 -0.55,0.322 -0.139,0.239 -0.002,0.59 0.061,0.833 0.081,0.313 0.171,0.622 0.269,0.93 0.194,0.611 0.418,1.213 0.681,1.799 0.298,0.664 0.649,1.303 0.988,1.947 0.562,-0.032 1.126,0.025 1.689,-0.042 0.66,-0.078 1.306,-0.284 1.893,-0.593 0.183,-0.095 0.474,-0.024 0.514,0.21 0.16,0.928 0.377,1.846 0.654,2.746 0.135,0.438 0.284,0.873 0.442,1.303 0.081,0.22 0.166,0.44 0.254,0.658 l 0.076,0.2 0.112,0.003 c 0.529,0.004 1.059,-0.036 1.581,-0.126 1.055,-0.183 2.081,-0.543 3.017,-1.06 0.419,-0.232 0.828,-0.483 1.236,-0.733 l -0.004,-0.089 c -0.03,-0.612 -0.081,-1.223 -0.155,-1.832 -0.145,-1.215 -0.418,-2.392 -0.691,-3.583 -0.041,-0.178 0.054,-0.401 0.25,-0.439 0.206,-0.041 0.417,-0.044 0.626,-0.039 0.05,-0.095 0.124,-0.165 0.243,-0.179 0.116,-0.014 0.27,0.037 0.321,0.154 0.167,0.38 0.109,0.857 0.143,1.269 0.032,0.396 0.08,0.79 0.146,1.182 0.134,0.809 0.331,1.607 0.59,2.386 0.508,1.525 1.263,2.968 2.198,4.275 0.535,0.747 1.163,1.417 1.729,2.138 0.126,0.162 -0.037,0.45 -0.241,0.312 -0.292,-0.196 -0.561,-0.419 -0.815,-0.66 -0.211,0.19 -0.475,0.121 -0.732,0.085 -0.199,-0.028 -0.398,-0.058 -0.597,-0.086 0.177,0.123 0.122,0.435 -0.13,0.439 -0.566,0.008 -1.147,-0.052 -1.71,-0.119 -0.434,-0.051 -0.869,-0.099 -1.304,-0.145 l -0.18,0.01 c -0.531,0.028 -1.061,0.054 -1.592,0.077 -1.061,0.047 -2.123,0.084 -3.185,0.111 -2.099,0.053 -4.199,0.067 -6.298,0.044 -0.582,-0.007 -1.163,-0.018 -1.745,-0.026 -0.152,-0.002 -0.304,-0.005 -0.455,-0.007 -0.148,-0.003 -0.33,0.02 -0.473,-0.019 -0.169,-0.047 -0.237,-0.21 -0.318,-0.349 l -0.217,-0.372 c -0.144,-0.249 0.025,-0.507 0.275,-0.561 -0.075,-0.454 -0.13,-0.905 -0.153,-1.37 -0.032,-0.609 -0.061,-1.218 -0.089,-1.827 -0.053,-1.192 -0.091,-2.385 -0.123,-3.578 -0.065,-2.387 -0.106,-4.774 -0.114,-7.161 -0.014,-4.154 0.064,-8.306 0.198,-12.458 -0.083,0.031 -0.192,-0.003 -0.216,-0.104 -0.142,-0.624 -0.139,-1.276 -0.141,-1.916 l -0.096,-0.157 c -0.04,-0.337 -0.11,-0.674 -0.132,-1.011 -0.021,-0.339 -0.035,-0.678 -0.046,-1.017 -0.023,-0.684 0.011,-1.377 0.073,-2.058 0.044,-0.494 0.112,-0.985 0.206,-1.469 0.013,-0.135 0.027,-0.27 0.043,-0.405 l 0.09,-0.196 c 0.128,-0.513 0.291,-1.018 0.497,-1.509 -0.398,0 -0.378,-0.609 0.023,-0.649 0.135,-0.013 0.269,-0.026 0.404,-0.039 l 0.12,-0.13 0.264,-0.115 0.118,-0.034 0.021,-0.008 0.246,0.048 c 0.096,-0.009 0.191,-0.017 0.288,-0.022 0.126,-0.031 0.224,0.04 0.272,0.138 3.977,-0.345 7.965,-0.52 11.956,-0.604 4.569,-0.097 9.14,-0.066 13.706,0.117 1.265,0.051 2.53,0.106 3.793,0.199 0.632,0.047 1.265,0.098 1.895,0.162 0.329,0.033 0.661,0.056 0.988,0.105 0.213,0.032 0.425,0.071 0.637,0.105 0.342,-0.007 0.684,-0.013 1.025,-0.018 1.89,-0.025 3.78,-0.022 5.669,0.031 1.008,0.027 2.003,0.09 3.004,0.195 0.091,-0.05 0.186,-0.085 0.282,-0.092 0.127,-0.01 0.223,0.103 0.233,0.22 0.071,0.091 0.047,0.248 -0.09,0.294"
         style="fill:#a8b8cd;fill-opacity:1;fill-rule:evenodd;stroke:none;stroke-width:0.1"
         id="path7877" />
      <path
         d="m 281.626,143.944 c -0.011,0.273 -0.43,0.275 -0.427,-10e-4 0.005,-0.376 -0.055,-0.761 -0.105,-1.134 -0.05,-0.371 -0.11,-0.74 -0.186,-1.106 -0.153,-0.744 -0.381,-1.477 -0.673,-2.178 -0.571,-1.37 -1.413,-2.638 -2.458,-3.69 -0.299,-0.3 -0.614,-0.584 -0.945,-0.849 -0.328,-0.262 -0.688,-0.475 -1.027,-0.721 -0.14,-0.102 -0.214,-0.25 -0.19,-0.407 -0.138,0.004 -0.241,-0.175 -0.177,-0.31 0.259,-0.538 0.672,-1.006 0.845,-1.585 0.18,-0.601 -0.032,-1.127 -0.379,-1.62 -0.397,-0.562 -0.841,-1.094 -1.266,-1.637 -0.138,-0.177 -0.276,-0.353 -0.414,-0.53 -0.116,0.21 -0.423,0.304 -0.603,0.089 -0.247,-0.21 -0.442,-0.517 -0.628,-0.775 -0.191,-0.266 -0.368,-0.542 -0.532,-0.825 -0.345,-0.6 -0.614,-1.236 -0.85,-1.886 l -0.02,-0.132 -0.119,-0.039 c -0.28,-0.095 -0.161,-0.472 0.12,-0.432 0.148,0.021 0.296,0.043 0.444,0.067 l 0.13,0.02 c 1.034,0.165 2.063,0.365 3.101,0.511 1.232,0.173 2.466,0.316 3.707,0.399 0.704,0.047 1.409,0.074 2.114,0.083 0.27,0.004 0.414,0.243 0.371,0.488 -0.669,3.87 -0.818,7.819 -0.364,11.723 0.061,0.523 0.133,1.044 0.208,1.565 0.04,0.267 0.078,0.533 0.117,0.8 0.044,0.299 0.058,0.591 0.077,0.892 l -0.069,0.2 c 0.026,0.116 0.051,0.231 0.073,0.347 0.086,0.445 0.142,0.893 0.168,1.345 0.027,0.447 -0.024,0.882 -0.043,1.328"
         style="fill:#a8b8cd;fill-opacity:1;fill-rule:evenodd;stroke:none;stroke-width:0.1"
         id="path7879" />
      <path
         d="m 269.301,132.818 c -0.364,-0.423 -0.888,-0.722 -1.404,-0.921 -0.281,-0.108 -0.241,-0.452 0.018,-0.528 l 0.006,-0.196 c 0.043,-0.177 0.252,-0.202 0.374,-0.099 l 0.151,0.119 c 0.137,0.01 0.222,0.091 0.255,0.189 0.091,0.097 0.077,0.25 -0.008,0.354 0.327,0.245 0.602,0.55 0.861,0.887 0.112,0.144 -0.134,0.334 -0.253,0.195"
         style="fill:#a8b8cd;fill-opacity:1;fill-rule:evenodd;stroke:none;stroke-width:0.1"
         id="path7881" />
      <path
         d="m 261.645,152.518 c -0.424,0.012 -0.837,-0.108 -1.254,-0.177 -0.374,-0.061 -0.751,-0.109 -1.128,-0.147 -0.816,-0.081 -1.635,-0.121 -2.454,-0.148 -0.498,-0.017 -0.996,-0.032 -1.495,-0.045 0.176,0.088 0.107,0.34 -0.088,0.365 -0.434,0.055 -0.882,0.016 -1.317,0.006 -0.439,-0.011 -0.878,-0.029 -1.317,-0.042 -0.88,-0.027 -1.759,-0.048 -2.639,-0.049 -1.746,-0.003 -3.496,0.049 -5.239,0.166 -0.489,0.032 -0.978,0.07 -1.466,0.114 -0.25,0.022 -0.501,0.043 -0.751,0.067 -0.184,0.016 -0.368,0.054 -0.541,0.019 -0.009,0.137 -10e-4,0.278 0.001,0.398 0.006,0.47 0.013,0.939 0.016,1.409 0.006,0.948 0.066,1.913 -0.047,2.856 -0.027,0.221 -0.389,0.327 -0.433,0.058 -0.144,-0.873 -0.136,-1.765 -0.168,-2.648 -0.015,-0.432 -0.029,-0.863 -0.042,-1.295 -0.011,-0.384 -0.052,-0.786 0.038,-1.164 0.181,-0.768 0.926,-0.967 1.618,-0.995 0.869,-0.037 1.739,-0.055 2.608,-0.075 3.52,-0.08 7.041,-0.069 10.561,0.035 0.955,0.028 1.911,0.06 2.864,0.144 0.473,0.042 0.945,0.098 1.415,0.169 0.484,0.074 0.99,0.13 1.424,0.368 0.293,0.161 0.148,0.602 -0.166,0.611"
         style="fill:#a8b8cd;fill-opacity:1;fill-rule:evenodd;stroke:none;stroke-width:0.1"
         id="path7883" />
      <path
         d="m 245.124,156.164 -0.003,0.003 -0.233,0.197 -0.03,0.016 -0.188,0.08 c -0.636,0.195 -1.322,-0.336 -1.185,-1.013 0.048,-0.242 0.199,-0.421 0.389,-0.525 l 0.002,-0.002 0.029,-0.024 c 0.226,-0.216 0.561,-0.306 0.861,-0.21 0.123,-0.011 0.247,0.01 0.366,0.083 0.48,0.294 0.33,1.002 -0.008,1.395"
         style="fill:#4fa4e0;fill-opacity:1;fill-rule:evenodd;stroke:none;stroke-width:0.1"
         id="path7885" />
      <path
         d="m 250.019,155.804 -0.033,0.213 c 0.019,0.292 -0.12,0.591 -0.365,0.757 -0.32,0.214 -0.763,0.173 -1.053,-0.072 -0.397,-0.035 -0.675,-0.373 -0.638,-0.767 -0.038,-0.128 -0.041,-0.272 0,-0.422 0.119,-0.428 0.575,-0.771 1.024,-0.662 0.183,0.044 0.33,0.158 0.424,0.303 0.337,0.029 0.632,0.302 0.641,0.65"
         style="fill:#4fa4e0;fill-opacity:1;fill-rule:evenodd;stroke:none;stroke-width:0.1"
         id="path7887" />
      <path
         d="m 255.062,156.085 c -0.115,0.328 -0.353,0.613 -0.701,0.702 -0.188,0.048 -0.379,0.024 -0.529,-0.062 -0.462,0.119 -0.995,-0.191 -0.951,-0.737 l 0.065,-0.242 c -0.064,-0.276 0.104,-0.587 0.305,-0.774 0.258,-0.239 0.595,-0.337 0.941,-0.279 0.63,0.105 1.09,0.768 0.87,1.392"
         style="fill:#4fa4e0;fill-opacity:1;fill-rule:evenodd;stroke:none;stroke-width:0.1"
         id="path7889" />
      <path
         d="m 260.005,156.47 c -0.203,0.215 -0.502,0.318 -0.779,0.251 -0.142,0.044 -0.309,0.032 -0.451,-0.02 -0.347,-0.129 -0.558,-0.46 -0.58,-0.823 -0.043,-0.709 0.707,-1.46 1.428,-1.236 0.77,0.24 0.898,1.282 0.382,1.828"
         style="fill:#4fa4e0;fill-opacity:1;fill-rule:evenodd;stroke:none;stroke-width:0.1"
         id="path7891" />
      <path
         d="m 130.196,154.781 h 9.942 v -4.324 l 9.885,5.699 -9.885,5.697 v -4.323 h -9.942 v -2.749"
         style="fill:#231f20;fill-opacity:1;fill-rule:nonzero;stroke:none;stroke-width:0.1"
         id="path7893" />
      <path
         d="m 250.8,126.159 c -5.188,-1.966 -13.061,-5.296 -18.673,-3.748 -2.858,0.789 -4.971,3.341 -7.518,4.791 -2.849,1.621 -5.99,2.642 -9.171,3.385 -4.656,1.089 -12.375,3.24 -16.996,1.228 -4.782,-2.083 -5.953,-8.459 -8.417,-12.524 -0.748,-1.235 0.728,-3.799 0,-5 2.396,3.953 3.506,9.88 7.865,12.228 4.655,2.507 12.734,0.181 17.548,-0.932 2.924,-0.676 5.796,-1.599 8.454,-3.007 2.604,-1.38 4.753,-3.967 7.498,-4.973 5.653,-2.071 14.143,1.556 19.41,3.552 0.584,0.222 -0.519,4.804 0,5"
         style="fill:#edecec;fill-opacity:1;fill-rule:nonzero;stroke:none;stroke-width:0.1"
         id="path7911" />
      <g
         id="g8049">
        <text
           xml:space="preserve"
           transform="matrix(1,0,0,-1,205.175,177.508)"
           style="font-variant:normal;font-weight:300;font-size:12px;font-family:Lato;-inkscape-font-specification:Lato-Light;writing-mode:lr-tb;fill:#231f20;fill-opacity:1;fill-rule:nonzero;stroke:none"
           id="text8053"><tspan
             x="0 6.8041883 10.709939 17.405939 24.024115 30.720116 35.820114 42.077927 48.689926 51.947735 62.651844 69.347839 75.959839 82.217651"
             y="0"
             sodipodi:role="line"
             id="tspan8051">Proposed Model</tspan></text>
      </g>
    </g>
  </g>
</svg>
