<?xml version="1.0" encoding="UTF-8" standalone="no"?>
<!-- Created with Inkscape (http://www.inkscape.org/) -->

<svg
   version="1.1"
   id="svg2"
   width="595.00214"
   height="1091.4567"
   viewBox="0 0 595.00213 1091.4566"
   sodipodi:docname="three-models.svg"
   inkscape:version="1.2.1 (9c6d41e410, 2022-07-14, custom)"
   inkscape:export-filename="first_model_.png"
   inkscape:export-xdpi="96"
   inkscape:export-ydpi="96"
   xmlns:inkscape="http://www.inkscape.org/namespaces/inkscape"
   xmlns:sodipodi="http://sodipodi.sourceforge.net/DTD/sodipodi-0.dtd"
   xmlns="http://www.w3.org/2000/svg"
   xmlns:svg="http://www.w3.org/2000/svg">
  <defs
     id="defs6" />
  <sodipodi:namedview
     id="namedview4"
     pagecolor="#ffffff"
     bordercolor="#666666"
     borderopacity="1.0"
     inkscape:showpageshadow="2"
     inkscape:pageopacity="0.0"
     inkscape:pagecheckerboard="0"
     inkscape:deskcolor="#d1d1d1"
     showgrid="false"
     inkscape:zoom="0.82183753"
     inkscape:cx="2662.3267"
     inkscape:cy="545.7283"
     inkscape:window-width="1920"
     inkscape:window-height="1080"
     inkscape:window-x="4480"
     inkscape:window-y="0"
     inkscape:window-maximized="1"
     inkscape:current-layer="g12">
    <inkscape:page
       x="0"
       y="0"
       width="595.00214"
       height="1091.4565"
       id="page13918"
       inkscape:export-filename="./first.png"
       inkscape:export-xdpi="96"
       inkscape:export-ydpi="96" />
    <inkscape:page
       x="595.00214"
       y="0"
       width="1562.309"
       height="1091.4565"
       id="page13920"
       inkscape:export-filename="./second.png"
       inkscape:export-xdpi="96"
       inkscape:export-ydpi="96" />
    <inkscape:page
       x="2157.311"
       y="0"
       width="1011.0994"
       height="1091.4565"
       id="page13922"
       inkscape:export-filename="./third.png"
       inkscape:export-xdpi="96"
       inkscape:export-ydpi="96" />
  </sodipodi:namedview>
  <g
     id="g10"
     inkscape:groupmode="layer"
     inkscape:label="Page 1"
     transform="matrix(1.3333333,0,0,-1.3333333,1169.9481,-0.42198006)">
    <g
       id="g12"
       transform="scale(0.1)">
      <g
         id="g2009"
         transform="matrix(2.6662685,0,0,2.6662685,-3367.8777,-10314.691)">
        <path
           d="M -553.33826,1621.075 H -1867.6063 c -53.625,0 -97.5,43.87 -97.5,97.5 v 1036.15 c 0,53.62 43.875,97.5 97.5,97.5 h 1314.26804 c 53.62,0 97.5,-43.88 97.5,-97.5 v -1036.15 c 0,-53.63 -43.88,-97.5 -97.5,-97.5"
           style="fill:#f8f8fa;fill-opacity:1;fill-rule:nonzero;stroke:none"
           id="path14" />
        <g
           id="g16"
           transform="matrix(10,0,0,10,-2075.3683,-999.68496)">
          <text
             xml:space="preserve"
             transform="matrix(1,0,0,-1,14.2766,419.572)"
             style="font-variant:normal;font-weight:300;font-size:12px;font-family:Lato;-inkscape-font-specification:Lato-Light;writing-mode:lr-tb;fill:#231f20;fill-opacity:1;fill-rule:nonzero;stroke:none"
             id="text28"><tspan
               x="0 2.8623011 8.4541006 11.5501 14.808891 21.582333 24.708311 31.992311 38.412312 45.000202 48.258015 59.153511 68.651566 77.771568 84.731567"
               y="0"
               sodipodi:role="line"
               id="tspan18">(a) FIRST MODEL</tspan><tspan
               x="22.3687 30.4807 37.0807 42.888699 47.13089 51.240273 54.499058 61.092808 64.968788 67.831085 75.697304 81.241241 86.785194 93.480507 100.07523 106.59672 110.70707"
               y="57.220699"
               sodipodi:role="line"
               id="tspan20">Chart of Accounts</tspan><tspan
               x="22.3687 31.32671 37.92046 47.58046 54.192459 60.450272 64.43367 67.691483 74.286201 78.162193 81.419991 90.450272 96.708084 103.24812 107.33991 114.03592 118.2117"
               y="76.905098"
               sodipodi:role="line"
               id="tspan22">Number of Debtors</tspan><tspan
               x="22.369871 31.327883 37.921631 47.581631 54.19363 60.451443 64.434845 67.69265 74.287376 78.163361 81.421165 88.171165 97.831169 104.44933 107.1007 113.63488 119.51476 125.77258 132.03136 137.13136"
               y="97.357399"
               sodipodi:role="line"
               id="tspan24">Number of Employees </tspan><tspan
               x="22.369871 27.854252 34.112064 40.238045 46.046043 48.698044 51.955849 60.805466 66.614052 70.723434 77.317184 81.223434"
               y="117.5011"
               sodipodi:role="line"
               id="tspan26">Legal Nature</tspan></text>
        </g>
        <path
           d="m -1808.7553,2620.085 c 0.426,0.37 3.063,-0.45 3.512,0.62 -1.254,0 -3.695,0.12 -3.512,-0.62 z m 7.231,16.73 c -1.571,-0.98 -3.719,-2.48 -4.34,-3.72 1.516,1.17 3.312,2.06 4.34,3.72 z m 27.261,10.94 c 0.965,-0.34 0.954,-1.66 1.446,-2.48 -1.016,0.26 -2.52,1.41 -1.446,2.48 z m -13.632,-9.91 c 0.632,0.2 1.933,0.07 1.859,-1.03 z m 32.632,47.3 v 0.82 c -1.148,0.37 -0.968,0.23 -2.062,-0.41 l -2.066,0.62 c -0.348,-0.89 -0.938,-1.54 -2.481,-1.24 -0.719,-1.71 -2.695,-2.97 -2.683,-5.16 0.01,-1.16 1.21,-2.3 0.414,-3.31 -3.418,3.6 -11.512,-0.2 -15.7,1.03 0.532,1.61 1.321,2.95 1.86,4.55 0.769,0.2 1.687,1.1 1.035,2.06 -2.774,-0.94 -2.703,-4.73 -5.578,-5.58 -1.117,1.26 -2.367,1.61 -3.719,2.9 -0.148,3.03 -1.598,4.52 -2.684,6.4 -0.449,0.78 -0.281,1.87 -1.445,1.86 l -0.621,-0.62 c -0.16,-1.2 0.574,-1.49 0.414,-2.68 -2.125,-1.16 -5.715,0.31 -8.055,1.44 -0.25,-1.28 0.469,-1.6 0.414,-2.68 -2.16,-1.1 -3.515,0.49 -5.578,-0.42 -1.136,0.72 -1.566,2.15 -3.097,2.48 -1.375,1.17 -1.575,3.52 -3.305,4.34 -0.051,-1.41 0.637,-1.57 1.238,-2.48 0.688,-1.04 1.348,-2.83 2.067,-3.72 0.937,-1.15 2.144,-1.55 2.066,-2.68 -0.105,-1.56 -1.93,-1.64 -3.305,-2.48 -1.289,-5.72 -7.816,-3.96 -12.394,-2.48 2.672,-1.39 6.164,-1.96 8.469,-3.72 -1.528,-1.22 -2.965,-2.54 -3.922,-4.33 -1.215,0.09 -1.524,1.09 -3.102,0.82 -0.18,-1.14 1.117,-0.81 1.449,-1.45 -3.207,-0.73 -4.519,2.06 -8.054,1.45 l -0.414,0.62 0.414,1.45 c -0.914,0.68 -1.629,1.66 -1.446,2.89 -1.464,0.67 -2.707,1.56 -2.894,3.51 -1.012,0.19 -0.559,-1.09 -1.652,-0.83 -0.555,1.72 -1.579,0.57 -3.098,1.24 l -0.617,-1.03 c -2.235,0.51 -2.246,-1.2 -3.512,-1.65 -1.402,0.52 -2.07,1.66 -3.719,1.03 0.059,-1.11 1.946,-0.39 2.27,-1.24 -0.754,-1.93 -1.297,-4.07 -2.27,-5.78 0.856,-0.54 1.356,-1.76 0.824,-3.1 1.282,-1.18 2.579,-2.55 3.098,-3.92 l 1.445,0.41 c 0.649,-0.46 1.286,-0.92 1.45,-1.86 2.011,1.08 4.25,0.98 6.402,1.45 l 0.41,1.44 1.656,0.42 0.207,1.03 c 2.829,-0.38 7.282,0.03 9.5,-1.86 0.645,-2.22 1.114,-4.43 0,-6.61 -0.359,-0.25 -1.375,0.16 -2.273,0 l -1.031,1.03 c -3.614,-0.66 -6.102,-2.44 -7.231,-5.57 0.215,-1.1 0.403,-2.22 0.414,-3.52 0.985,-2.04 3.188,-2.87 4.543,-4.54 l 2.684,0.21 c 2.324,1.19 4.601,2.42 5.371,5.16 3.094,0 3.195,-3 5.164,-4.13 -0.562,-3.09 -1.508,-5.79 -2.273,-8.68 1.523,1.23 2.089,3.75 2.48,6.61 l 2.27,1.04 c 0.523,-0.51 1.398,-0.67 1.449,-1.65 l -0.828,-1.45 c 2.402,0.26 6.261,0.49 5.992,-3.31 1.183,-0.35 0.777,0.88 1.648,0.83 1.961,-1.43 2.395,-7.3 1.242,-9.29 -1.238,1.54 -1.074,3.97 -3.511,3.71 -2.418,-0.25 -2.875,-3.74 -1.239,-5.78 2.114,-0.7 3.997,-2.05 5.161,0.42 2.187,-1.93 0.808,-6.6 -1.239,-7.85 l -1.859,-1.24 0.207,-0.42 c 0.742,-0.42 2.234,-0.1 3.305,-0.2 0.562,-1.02 1.371,-1.8 1.445,-3.31 -0.574,-0.66 -2.328,-1.24 -1.859,-2.27 0.543,1.06 2.793,1.36 3.925,0.62 l 0.414,-2.06 c 1.489,-0.56 2.668,-1.9 4.543,-1.45 l 1.032,-2.48 c 1.195,-0.09 0.832,1.37 2.066,1.24 0.484,-0.62 -0.211,-2.41 1.031,-2.27 l 1.036,2.27 c 1.726,0.45 2.734,-0.04 4.335,0 l 0.622,-1.03 v 1.03 c 0.863,-0.03 0.921,-0.87 2.062,-0.62 v 2.27 c 3.969,0.23 4.352,4.05 6.406,6.2 2.528,0.46 4.211,-1.02 5.782,-0.83 l -2.274,1.24 1.035,1.65 c -1.316,0.08 -1.726,-0.75 -2.48,-1.24 l -2.27,1.04 c -0.238,1.54 0.696,1.92 1.239,2.68 -0.161,1.01 -0.86,1.48 -0.829,2.69 0.145,0.82 1.512,0.41 1.45,1.44 l -1.86,0.83 c -0.261,1.51 0.106,1.67 0.207,3.1 -1.398,0.39 -2.636,0.94 -2.48,2.89 -1.621,0.24 -3.043,0.67 -2.891,2.68 l -1.652,1.04 0.207,1.03 c -0.461,-1.25 -2.84,-0.33 -3.512,0.2 -0.808,-0.15 -0.805,-1.12 -1.859,-1.03 l -0.414,1.03 c 1.433,0.98 4.265,0.56 5.785,1.45 -0.016,2.21 -1.059,4.4 0.207,6.61 l 0.41,0.21 1.652,-0.42 c 1.809,-2.56 4.977,-2.62 7.438,-4.33 -1.32,2.4 -6.957,2.26 -6.195,7.43 -1.352,0.32 -1.071,-1.86 -2.067,-1.24 0.465,1.67 2.274,2 3.098,3.31 4.988,1.44 8.23,-3.11 13.012,-1.45 1.394,5.7 -8.914,4.53 -9.293,8.68 -0.239,2.57 2.078,1.77 3.714,2.47 -0.5,1.64 -2.949,0.37 -3.714,1.45 -0.094,1.81 1.668,1.77 2.683,2.48 -0.336,2.01 1.278,2.16 2.067,3.51 -0.5,1.08 -2.414,0.75 -2.688,2.07 1.125,1.63 2.742,5.13 5.371,3.3 1.184,0.95 1.996,-0.03 2.891,-0.83 0.738,0.93 1.551,0.45 2.687,0.21 1.371,1.79 4.7,3.15 3.508,6.2 0.07,0.82 0.856,0.93 0.828,1.86 -1.511,1.17 -1.687,3.68 -3.926,4.13 z m -20.652,-82.2 c -0.418,1.78 -1.055,3.35 -2.066,4.54 0.398,-1.81 1.105,-3.3 2.066,-4.54 z m 7.024,6.6 c 0.046,-1.17 2.089,-1.28 2.683,-1.24 -0.359,0.95 -1.613,1.01 -2.683,1.24 z m -71.465,3.1 c -0.793,1.55 -2.719,0.34 -2.891,-0.83 -0.215,-1.45 1.418,-1.83 1.445,-3.09 2.731,-0.89 2.512,2.45 3.719,3.72 l -0.414,0.82 c -0.976,0.15 -1.355,-0.29 -1.859,-0.62 z m 31.187,5.78 c 1.457,-0.26 2.985,-0.46 4.543,-0.61 -0.621,0.96 -3.324,0.93 -4.543,0.61 z m 41.723,8.27 c 1.031,-1.5 2.664,-0.47 4.957,-0.83 -0.582,1.34 -3.359,1.14 -4.957,0.83 z m -46.887,-0.42 -1.652,-0.62 c -0.969,0.34 -1.051,1.57 -1.442,2.48 -0.843,0.16 -0.714,-0.66 -1.656,-0.41 l -1.238,1.45 c -1.895,-0.38 -2.313,0.71 -3.305,1.23 l -1.031,-1.03 c -1.977,0.82 -2.207,-1.77 -4.34,-0.83 -0.68,-2.35 -2.5,-3.68 -5.16,-3.51 -0.074,-1.24 1.394,-0.94 1.652,-1.86 0.36,-1.8 -0.66,-2.23 -0.828,-3.51 0.688,-1.15 1.199,-2.85 1.445,-4.96 1.071,0.04 1.258,-0.8 1.653,-1.44 1.101,0.14 1.808,-0.12 2.066,-0.82 0.227,-1.13 -0.418,-1.38 -0.414,-2.28 0.977,0.47 1.742,1.15 3.102,1.24 0.91,-0.67 1.511,-1.65 3.508,-1.24 l 1.035,1.24 1.445,-1.24 c 0.684,0.41 -0.34,2.35 1.031,2.48 0.867,0.04 0.641,-1.01 1.653,-0.83 0.226,0.95 0.226,1.33 0,2.28 1.359,0.84 1.66,-1.02 2.476,-0.62 l -1.031,1.65 c 0.941,1.27 -0.305,3.71 1.031,4.75 0.918,0.46 3.899,-0.63 5.164,0.41 -4.148,-1.13 -7.437,2.53 -5.164,5.99 z m 70.844,34.91 c 0.57,-0.74 2.266,-0.42 2.273,0.62 -0.468,1.07 -2.3,0.55 -2.273,-0.62 z m -79.723,16.93 c -1.176,0.27 -2.144,0.75 -3.304,1.04 0.05,-1.27 2.484,-1.23 3.304,-1.04 z m 76.625,22.52 v 1.44 c -1.144,0 -1.734,1.11 -2.89,1.45 -1.114,0.33 -2.532,-0.19 -3.305,0.83 -0.371,-0.8 -1.25,-1 -2.273,-0.63 -0.278,-1.71 -2.391,-1.6 -2.27,-3.71 l -0.828,-0.21 0.414,-1.03 -1.031,-1.24 c 1.226,-0.43 1.281,-2.02 1.652,-3.31 1.242,-0.47 1.582,-1.85 2.891,-2.27 -1.653,-0.62 -3.043,-1.5 -3.098,-3.71 4.477,-2.22 4.746,5.32 9.5,4.12 0.945,2.17 3.215,4.08 1.859,6.82 l 1.032,1.24 z m -18.59,8.05 c 1.93,-0.58 3.618,0.77 3.719,2.68 -1.66,0.34 -3.558,-0.64 -3.922,-2.26 z m -35.109,-5.99 c 0.875,-0.25 1.762,-0.29 1.238,-1.45 1.055,0.25 2.078,-0.45 2.895,-1.03 1.5,0.37 2.398,0.07 3.508,-0.41 0.465,1.74 2.183,2.22 3.511,3.1 -0.351,1 -0.109,1.84 0.829,2.06 0.281,2.02 -1.235,2.83 -0.415,4.75 -2.082,0.47 -2.71,2.39 -4.335,3.31 l -1.036,-0.83 -1.238,0.83 c -0.277,-0.98 -1.367,-1.24 -2.48,-0.83 -0.633,-1.43 -1.723,-2.4 -3.094,-3.09 1.074,-0.98 -0.094,-2.45 -0.621,-3.1 0.414,-1.37 1.414,-1.66 1.238,-3.31 z m 0.824,11.77 c 0.36,1.71 -2.59,1.48 -1.652,0 0.918,0.1 1.027,-0.28 1.652,0"
           style="fill:#231f20;fill-opacity:1;fill-rule:evenodd;stroke:none"
           id="path30" />
        <path
           d="m -1808.7553,2423.805 c 0.426,0.37 3.063,-0.45 3.512,0.62 -1.254,0.01 -3.695,0.12 -3.512,-0.62 z m 7.231,16.73 c -1.571,-0.98 -3.719,-2.48 -4.34,-3.72 1.516,1.17 3.312,2.06 4.34,3.72 z m 27.261,10.95 c 0.965,-0.35 0.954,-1.67 1.446,-2.48 -1.016,0.25 -2.52,1.4 -1.446,2.48 z m -13.632,-9.92 c 0.632,0.2 1.933,0.07 1.859,-1.03 z m 32.632,47.3 v 0.83 c -1.148,0.37 -0.968,0.22 -2.062,-0.42 l -2.066,0.62 c -0.348,-0.89 -0.938,-1.54 -2.481,-1.24 -0.719,-1.71 -2.695,-2.96 -2.683,-5.16 0.01,-1.16 1.21,-2.3 0.414,-3.3 -3.418,3.59 -11.512,-0.2 -15.7,1.03 0.532,1.6 1.321,2.95 1.86,4.54 0.769,0.21 1.687,1.1 1.035,2.07 -2.774,-0.95 -2.703,-4.73 -5.578,-5.58 -1.117,1.25 -2.367,1.6 -3.719,2.89 -0.148,3.03 -1.598,4.52 -2.684,6.4 -0.449,0.78 -0.281,1.88 -1.445,1.86 l -0.621,-0.62 c -0.16,-1.19 0.574,-1.49 0.414,-2.68 -2.125,-1.16 -5.715,0.32 -8.055,1.44 -0.25,-1.28 0.469,-1.59 0.414,-2.68 -2.16,-1.1 -3.515,0.49 -5.578,-0.41 -1.136,0.72 -1.566,2.15 -3.097,2.48 -1.375,1.17 -1.575,3.52 -3.305,4.33 -0.051,-1.41 0.637,-1.57 1.238,-2.48 0.688,-1.03 1.348,-2.83 2.067,-3.72 0.937,-1.15 2.144,-1.54 2.066,-2.68 -0.105,-1.56 -1.93,-1.64 -3.305,-2.48 -1.289,-5.72 -7.816,-3.96 -12.394,-2.48 2.672,-1.39 6.164,-1.96 8.469,-3.72 -1.528,-1.22 -2.965,-2.53 -3.922,-4.33 -1.215,0.09 -1.524,1.09 -3.102,0.82 -0.18,-1.14 1.117,-0.81 1.449,-1.44 -3.207,-0.74 -4.519,2.06 -8.054,1.44 l -0.414,0.62 0.414,1.45 c -0.914,0.69 -1.629,1.67 -1.446,2.89 -1.464,0.68 -2.707,1.56 -2.894,3.51 -1.012,0.19 -0.559,-1.09 -1.652,-0.82 -0.555,1.72 -1.579,0.56 -3.098,1.24 l -0.617,-1.04 c -2.235,0.51 -2.246,-1.19 -3.512,-1.65 -1.402,0.53 -2.07,1.66 -3.719,1.03 0.059,-1.11 1.946,-0.39 2.27,-1.23 -0.754,-1.93 -1.297,-4.08 -2.27,-5.79 0.856,-0.54 1.356,-1.76 0.824,-3.1 1.282,-1.18 2.579,-2.55 3.098,-3.92 l 1.445,0.41 c 0.649,-0.45 1.286,-0.92 1.45,-1.86 2.011,1.09 4.25,0.98 6.402,1.45 l 0.41,1.45 1.656,0.41 0.207,1.03 c 2.829,-0.38 7.282,0.03 9.5,-1.86 0.645,-2.22 1.114,-4.42 0,-6.61 -0.359,-0.25 -1.375,0.16 -2.273,0 l -1.031,1.03 c -3.614,-0.65 -6.102,-2.43 -7.231,-5.57 0.215,-1.09 0.403,-2.22 0.414,-3.51 0.985,-2.05 3.188,-2.87 4.543,-4.55 l 2.684,0.21 c 2.324,1.19 4.601,2.42 5.371,5.16 3.094,0 3.195,-3 5.164,-4.13 -0.562,-3.08 -1.508,-5.79 -2.273,-8.67 1.523,1.22 2.089,3.75 2.48,6.61 l 2.27,1.03 c 0.523,-0.51 1.398,-0.67 1.449,-1.65 l -0.828,-1.45 c 2.402,0.27 6.261,0.49 5.992,-3.3 1.183,-0.36 0.777,0.87 1.648,0.82 1.961,-1.43 2.395,-7.3 1.242,-9.29 -1.238,1.54 -1.074,3.98 -3.511,3.72 -2.418,-0.26 -2.875,-3.74 -1.239,-5.79 2.114,-0.7 3.997,-2.04 5.161,0.42 2.187,-1.93 0.808,-6.6 -1.239,-7.85 l -1.859,-1.24 0.207,-0.41 c 0.742,-0.43 2.234,-0.11 3.305,-0.21 0.562,-1.02 1.371,-1.8 1.445,-3.3 -0.574,-0.67 -2.328,-1.25 -1.859,-2.28 0.543,1.06 2.793,1.36 3.925,0.62 l 0.414,-2.06 c 1.489,-0.56 2.668,-1.89 4.543,-1.45 l 1.032,-2.48 c 1.195,-0.09 0.832,1.38 2.066,1.24 0.484,-0.62 -0.211,-2.41 1.031,-2.27 l 1.036,2.27 c 1.726,0.46 2.734,-0.03 4.335,0 l 0.622,-1.03 v 1.03 c 0.863,-0.03 0.921,-0.87 2.062,-0.62 v 2.27 c 3.969,0.24 4.352,4.06 6.406,6.2 2.528,0.46 4.211,-1.02 5.782,-0.83 l -2.274,1.24 1.035,1.66 c -1.316,0.07 -1.726,-0.76 -2.48,-1.24 l -2.27,1.03 c -0.238,1.54 0.696,1.92 1.239,2.68 -0.161,1.01 -0.86,1.49 -0.829,2.69 0.145,0.82 1.512,0.42 1.45,1.45 l -1.86,0.82 c -0.261,1.51 0.106,1.67 0.207,3.1 -1.398,0.39 -2.636,0.94 -2.48,2.89 -1.621,0.24 -3.043,0.68 -2.891,2.69 l -1.652,1.03 0.207,1.03 c -0.461,-1.25 -2.84,-0.32 -3.512,0.21 -0.808,-0.16 -0.805,-1.13 -1.859,-1.03 l -0.414,1.03 c 1.433,0.97 4.265,0.55 5.785,1.44 -0.016,2.22 -1.059,4.41 0.207,6.61 l 0.41,0.21 1.652,-0.41 c 1.809,-2.57 4.977,-2.63 7.438,-4.34 -1.32,2.4 -6.957,2.26 -6.195,7.43 -1.352,0.32 -1.071,-1.86 -2.067,-1.23 0.465,1.67 2.274,1.99 3.098,3.3 4.988,1.45 8.23,-3.11 13.012,-1.45 1.394,5.71 -8.914,4.53 -9.293,8.68 -0.239,2.57 2.078,1.78 3.714,2.48 -0.5,1.64 -2.949,0.37 -3.714,1.44 -0.094,1.82 1.668,1.77 2.683,2.48 -0.336,2.02 1.278,2.16 2.067,3.51 -0.5,1.09 -2.414,0.76 -2.688,2.07 1.125,1.63 2.742,5.13 5.371,3.3 1.184,0.95 1.996,-0.03 2.891,-0.82 0.738,0.92 1.551,0.44 2.687,0.2 1.371,1.79 4.7,3.15 3.508,6.2 0.07,0.83 0.856,0.94 0.828,1.86 -1.511,1.17 -1.687,3.68 -3.926,4.13 z m -20.652,-82.2 c -0.418,1.78 -1.055,3.35 -2.066,4.54 0.398,-1.8 1.105,-3.3 2.066,-4.54 z m 7.024,6.61 c 0.046,-1.18 2.089,-1.29 2.683,-1.24 -0.359,0.94 -1.613,1 -2.683,1.24 z m -71.465,3.09 c -0.793,1.55 -2.719,0.34 -2.891,-0.82 -0.215,-1.45 1.418,-1.84 1.445,-3.1 2.731,-0.89 2.512,2.45 3.719,3.72 l -0.414,0.82 c -0.976,0.15 -1.355,-0.29 -1.859,-0.62 z m 31.187,5.79 c 1.457,-0.27 2.985,-0.46 4.543,-0.62 -0.621,0.96 -3.324,0.93 -4.543,0.62 z m 41.723,8.26 c 1.031,-1.5 2.664,-0.47 4.957,-0.83 -0.582,1.34 -3.359,1.14 -4.957,0.83 z m -46.887,-0.41 -1.652,-0.62 c -0.969,0.33 -1.051,1.56 -1.442,2.47 -0.843,0.16 -0.714,-0.66 -1.656,-0.41 l -1.238,1.45 c -1.895,-0.38 -2.313,0.71 -3.305,1.24 l -1.031,-1.04 c -1.977,0.83 -2.207,-1.77 -4.34,-0.82 -0.68,-2.36 -2.5,-3.69 -5.16,-3.51 -0.074,-1.25 1.394,-0.95 1.652,-1.86 0.36,-1.81 -0.66,-2.24 -0.828,-3.51 0.688,-1.16 1.199,-2.86 1.445,-4.96 1.071,0.03 1.258,-0.81 1.653,-1.45 1.101,0.14 1.808,-0.12 2.066,-0.82 0.227,-1.12 -0.418,-1.38 -0.414,-2.27 0.977,0.46 1.742,1.15 3.102,1.23 0.91,-0.67 1.511,-1.65 3.508,-1.23 l 1.035,1.23 1.445,-1.23 c 0.684,0.41 -0.34,2.34 1.031,2.47 0.867,0.04 0.641,-1.01 1.653,-0.82 0.226,0.94 0.226,1.32 0,2.27 1.359,0.84 1.66,-1.02 2.476,-0.62 l -1.031,1.65 c 0.941,1.28 -0.305,3.71 1.031,4.75 0.918,0.46 3.899,-0.63 5.164,0.42 -4.148,-1.14 -7.437,2.53 -5.164,5.99 z m 70.844,34.9 c 0.57,-0.74 2.266,-0.42 2.273,0.62 -0.468,1.07 -2.3,0.56 -2.273,-0.62 z m -79.723,16.94 c -1.176,0.27 -2.144,0.74 -3.304,1.03 0.05,-1.26 2.484,-1.23 3.304,-1.03 z m 76.625,22.51 v 1.44 c -1.144,0 -1.734,1.11 -2.89,1.45 -1.114,0.33 -2.532,-0.19 -3.305,0.83 -0.371,-0.8 -1.25,-1 -2.273,-0.62 -0.278,-1.72 -2.391,-1.6 -2.27,-3.72 l -0.828,-0.21 0.414,-1.03 -1.031,-1.24 c 1.226,-0.42 1.281,-2.02 1.652,-3.3 1.242,-0.48 1.582,-1.86 2.891,-2.28 -1.653,-0.61 -3.043,-1.5 -3.098,-3.71 4.477,-2.22 4.746,5.32 9.5,4.13 0.945,2.17 3.215,4.08 1.859,6.81 l 1.032,1.24 z m -18.59,8.05 c 1.93,-0.58 3.618,0.77 3.719,2.69 -1.66,0.34 -3.558,-0.65 -3.922,-2.27 z m -35.109,-5.98 c 0.875,-0.25 1.762,-0.3 1.238,-1.45 1.055,0.24 2.078,-0.45 2.895,-1.03 1.5,0.36 2.398,0.07 3.508,-0.42 0.465,1.74 2.183,2.23 3.511,3.1 -0.351,1 -0.109,1.84 0.829,2.07 0.281,2.01 -1.235,2.82 -0.415,4.75 -2.082,0.46 -2.71,2.38 -4.335,3.3 l -1.036,-0.82 -1.238,0.82 c -0.277,-0.97 -1.367,-1.24 -2.48,-0.82 -0.633,-1.43 -1.723,-2.41 -3.094,-3.1 1.074,-0.97 -0.094,-2.45 -0.621,-3.1 0.414,-1.36 1.414,-1.66 1.238,-3.3 z m 0.824,11.77 c 0.36,1.71 -2.59,1.47 -1.652,0 0.918,0.1 1.027,-0.29 1.652,0"
           style="fill:#231f20;fill-opacity:1;fill-rule:evenodd;stroke:none"
           id="path32" />
        <path
           d="m -1808.7553,2222.165 c 0.426,0.37 3.063,-0.45 3.512,0.62 -1.254,0.01 -3.695,0.12 -3.512,-0.62 z m 7.231,16.73 c -1.571,-0.98 -3.719,-2.48 -4.34,-3.72 1.516,1.17 3.312,2.06 4.34,3.72 z m 27.261,10.94 c 0.965,-0.34 0.954,-1.66 1.446,-2.47 -1.016,0.25 -2.52,1.4 -1.446,2.47 z m -13.632,-9.91 c 0.632,0.2 1.933,0.07 1.859,-1.03 z m 32.632,47.3 v 0.82 c -1.148,0.38 -0.968,0.23 -2.062,-0.41 l -2.066,0.62 c -0.348,-0.89 -0.938,-1.54 -2.481,-1.24 -0.719,-1.71 -2.695,-2.97 -2.683,-5.16 0.01,-1.16 1.21,-2.3 0.414,-3.31 -3.418,3.6 -11.512,-0.19 -15.7,1.04 0.532,1.6 1.321,2.94 1.86,4.54 0.769,0.2 1.687,1.1 1.035,2.07 -2.774,-0.95 -2.703,-4.74 -5.578,-5.58 -1.117,1.25 -2.367,1.6 -3.719,2.89 -0.148,3.03 -1.598,4.52 -2.684,6.4 -0.449,0.78 -0.281,1.88 -1.445,1.86 l -0.621,-0.62 c -0.16,-1.19 0.574,-1.49 0.414,-2.68 -2.125,-1.16 -5.715,0.31 -8.055,1.44 -0.25,-1.28 0.469,-1.59 0.414,-2.68 -2.16,-1.1 -3.515,0.49 -5.578,-0.42 -1.136,0.73 -1.566,2.15 -3.097,2.48 -1.375,1.17 -1.575,3.52 -3.305,4.34 -0.051,-1.41 0.637,-1.57 1.238,-2.48 0.688,-1.03 1.348,-2.83 2.067,-3.72 0.937,-1.15 2.144,-1.54 2.066,-2.68 -0.105,-1.56 -1.93,-1.64 -3.305,-2.48 -1.289,-5.72 -7.816,-3.96 -12.394,-2.48 2.672,-1.39 6.164,-1.96 8.469,-3.72 -1.528,-1.22 -2.965,-2.54 -3.922,-4.33 -1.215,0.09 -1.524,1.09 -3.102,0.82 -0.18,-1.14 1.117,-0.81 1.449,-1.44 -3.207,-0.74 -4.519,2.06 -8.054,1.44 l -0.414,0.62 0.414,1.45 c -0.914,0.68 -1.629,1.66 -1.446,2.89 -1.464,0.67 -2.707,1.56 -2.894,3.51 -1.012,0.19 -0.559,-1.09 -1.652,-0.82 -0.555,1.71 -1.579,0.56 -3.098,1.24 l -0.617,-1.04 c -2.235,0.51 -2.246,-1.2 -3.512,-1.65 -1.402,0.52 -2.07,1.66 -3.719,1.03 0.059,-1.11 1.946,-0.39 2.27,-1.24 -0.754,-1.93 -1.297,-4.07 -2.27,-5.78 0.856,-0.54 1.356,-1.76 0.824,-3.1 1.282,-1.18 2.579,-2.55 3.098,-3.92 l 1.445,0.41 c 0.649,-0.45 1.286,-0.92 1.45,-1.86 2.011,1.08 4.25,0.98 6.402,1.45 l 0.41,1.44 1.656,0.42 0.207,1.03 c 2.829,-0.38 7.282,0.03 9.5,-1.86 0.645,-2.22 1.114,-4.42 0,-6.61 -0.359,-0.25 -1.375,0.16 -2.273,0 l -1.031,1.03 c -3.614,-0.65 -6.102,-2.44 -7.231,-5.57 0.215,-1.1 0.403,-2.22 0.414,-3.51 0.985,-2.05 3.188,-2.87 4.543,-4.55 l 2.684,0.21 c 2.324,1.19 4.601,2.42 5.371,5.16 3.094,0 3.195,-3 5.164,-4.13 -0.562,-3.08 -1.508,-5.79 -2.273,-8.67 1.523,1.22 2.089,3.75 2.48,6.61 l 2.27,1.03 c 0.523,-0.51 1.398,-0.67 1.449,-1.65 l -0.828,-1.45 c 2.402,0.27 6.261,0.49 5.992,-3.3 1.183,-0.36 0.777,0.87 1.648,0.82 1.961,-1.43 2.395,-7.3 1.242,-9.29 -1.238,1.54 -1.074,3.97 -3.511,3.72 -2.418,-0.26 -2.875,-3.75 -1.239,-5.79 2.114,-0.7 3.997,-2.04 5.161,0.42 2.187,-1.93 0.808,-6.6 -1.239,-7.85 l -1.859,-1.24 0.207,-0.41 c 0.742,-0.43 2.234,-0.11 3.305,-0.21 0.562,-1.02 1.371,-1.8 1.445,-3.31 -0.574,-0.66 -2.328,-1.24 -1.859,-2.27 0.543,1.06 2.793,1.36 3.925,0.62 l 0.414,-2.06 c 1.489,-0.56 2.668,-1.89 4.543,-1.45 l 1.032,-2.48 c 1.195,-0.09 0.832,1.37 2.066,1.24 0.484,-0.62 -0.211,-2.41 1.031,-2.27 l 1.036,2.27 c 1.726,0.46 2.734,-0.03 4.335,0 l 0.622,-1.03 v 1.03 c 0.863,-0.03 0.921,-0.87 2.062,-0.62 v 2.27 c 3.969,0.24 4.352,4.05 6.406,6.2 2.528,0.46 4.211,-1.02 5.782,-0.83 l -2.274,1.24 1.035,1.66 c -1.316,0.07 -1.726,-0.76 -2.48,-1.24 l -2.27,1.03 c -0.238,1.54 0.696,1.92 1.239,2.68 -0.161,1.01 -0.86,1.49 -0.829,2.69 0.145,0.82 1.512,0.42 1.45,1.44 l -1.86,0.83 c -0.261,1.51 0.106,1.67 0.207,3.1 -1.398,0.39 -2.636,0.94 -2.48,2.89 -1.621,0.24 -3.043,0.68 -2.891,2.68 l -1.652,1.04 0.207,1.03 c -0.461,-1.25 -2.84,-0.32 -3.512,0.21 -0.808,-0.16 -0.805,-1.13 -1.859,-1.04 l -0.414,1.04 c 1.433,0.97 4.265,0.55 5.785,1.44 -0.016,2.22 -1.059,4.4 0.207,6.61 l 0.41,0.21 1.652,-0.41 c 1.809,-2.57 4.977,-2.63 7.438,-4.34 -1.32,2.4 -6.957,2.26 -6.195,7.43 -1.352,0.32 -1.071,-1.86 -2.067,-1.24 0.465,1.67 2.274,2 3.098,3.31 4.988,1.44 8.23,-3.11 13.012,-1.45 1.394,5.71 -8.914,4.53 -9.293,8.68 -0.239,2.57 2.078,1.78 3.714,2.48 -0.5,1.64 -2.949,0.37 -3.714,1.44 -0.094,1.81 1.668,1.77 2.683,2.48 -0.336,2.01 1.278,2.16 2.067,3.51 -0.5,1.08 -2.414,0.76 -2.688,2.07 1.125,1.63 2.742,5.13 5.371,3.3 1.184,0.95 1.996,-0.03 2.891,-0.82 0.738,0.92 1.551,0.43 2.687,0.2 1.371,1.79 4.7,3.15 3.508,6.2 0.07,0.82 0.856,0.93 0.828,1.86 -1.511,1.17 -1.687,3.68 -3.926,4.13 z m -20.652,-82.2 c -0.418,1.78 -1.055,3.35 -2.066,4.54 0.398,-1.8 1.105,-3.3 2.066,-4.54 z m 7.024,6.6 c 0.046,-1.17 2.089,-1.28 2.683,-1.24 -0.359,0.95 -1.613,1.01 -2.683,1.24 z m -71.465,3.1 c -0.793,1.55 -2.719,0.34 -2.891,-0.82 -0.215,-1.46 1.418,-1.84 1.445,-3.1 2.731,-0.89 2.512,2.45 3.719,3.72 l -0.414,0.82 c -0.976,0.15 -1.355,-0.29 -1.859,-0.62 z m 31.187,5.79 c 1.457,-0.27 2.985,-0.47 4.543,-0.62 -0.621,0.96 -3.324,0.93 -4.543,0.62 z m 41.723,8.26 c 1.031,-1.5 2.664,-0.47 4.957,-0.83 -0.582,1.34 -3.359,1.14 -4.957,0.83 z m -46.887,-0.42 -1.652,-0.62 c -0.969,0.34 -1.051,1.57 -1.442,2.48 -0.843,0.16 -0.714,-0.66 -1.656,-0.41 l -1.238,1.45 c -1.895,-0.38 -2.313,0.71 -3.305,1.24 l -1.031,-1.04 c -1.977,0.83 -2.207,-1.77 -4.34,-0.82 -0.68,-2.36 -2.5,-3.69 -5.16,-3.52 -0.074,-1.24 1.394,-0.94 1.652,-1.85 0.36,-1.81 -0.66,-2.24 -0.828,-3.51 0.688,-1.16 1.199,-2.86 1.445,-4.96 1.071,0.03 1.258,-0.81 1.653,-1.45 1.101,0.14 1.808,-0.12 2.066,-0.82 0.227,-1.12 -0.418,-1.38 -0.414,-2.28 0.977,0.47 1.742,1.15 3.102,1.24 0.91,-0.67 1.511,-1.65 3.508,-1.24 l 1.035,1.24 1.445,-1.24 c 0.684,0.41 -0.34,2.35 1.031,2.48 0.867,0.04 0.641,-1.01 1.653,-0.82 0.226,0.94 0.226,1.32 0,2.27 1.359,0.84 1.66,-1.02 2.476,-0.62 l -1.031,1.65 c 0.941,1.27 -0.305,3.71 1.031,4.75 0.918,0.46 3.899,-0.63 5.164,0.41 -4.148,-1.13 -7.437,2.54 -5.164,5.99 z m 70.844,34.91 c 0.57,-0.74 2.266,-0.42 2.273,0.62 -0.468,1.07 -2.3,0.56 -2.273,-0.62 z m -79.723,16.94 c -1.176,0.26 -2.144,0.74 -3.304,1.03 0.05,-1.26 2.484,-1.23 3.304,-1.03 z m 76.625,22.51 v 1.44 c -1.144,0 -1.734,1.11 -2.89,1.45 -1.114,0.33 -2.532,-0.19 -3.305,0.83 -0.371,-0.8 -1.25,-1 -2.273,-0.62 -0.278,-1.72 -2.391,-1.6 -2.27,-3.72 l -0.828,-0.21 0.414,-1.03 -1.031,-1.24 c 1.226,-0.42 1.281,-2.02 1.652,-3.3 1.242,-0.48 1.582,-1.86 2.891,-2.28 -1.653,-0.62 -3.043,-1.5 -3.098,-3.71 4.477,-2.22 4.746,5.32 9.5,4.13 0.945,2.16 3.215,4.07 1.859,6.81 l 1.032,1.24 z m -18.59,8.05 c 1.93,-0.58 3.618,0.77 3.719,2.69 -1.66,0.34 -3.558,-0.65 -3.922,-2.27 z m -35.109,-5.99 c 0.875,-0.25 1.762,-0.29 1.238,-1.44 1.055,0.24 2.078,-0.45 2.895,-1.04 1.5,0.37 2.398,0.07 3.508,-0.41 0.465,1.74 2.183,2.22 3.511,3.1 -0.351,1 -0.109,1.84 0.829,2.07 0.281,2.01 -1.235,2.82 -0.415,4.75 -2.082,0.46 -2.71,2.38 -4.335,3.3 l -1.036,-0.83 -1.238,0.83 c -0.277,-0.97 -1.367,-1.24 -2.48,-0.83 -0.633,-1.43 -1.723,-2.4 -3.094,-3.09 1.074,-0.98 -0.094,-2.45 -0.621,-3.1 0.414,-1.36 1.414,-1.66 1.238,-3.31 z m 0.824,11.78 c 0.36,1.7 -2.59,1.47 -1.652,0 0.918,0.09 1.027,-0.29 1.652,0"
           style="fill:#231f20;fill-opacity:1;fill-rule:evenodd;stroke:none"
           id="path34" />
        <path
           d="m -1808.7553,2019.765 c 0.426,0.37 3.063,-0.44 3.512,0.62 -1.254,0.01 -3.695,0.12 -3.512,-0.62 z m 7.231,16.73 c -1.571,-0.98 -3.719,-2.48 -4.34,-3.72 1.516,1.17 3.312,2.06 4.34,3.72 z m 27.261,10.95 c 0.965,-0.35 0.954,-1.67 1.446,-2.48 -1.016,0.26 -2.52,1.4 -1.446,2.48 z m -13.632,-9.92 c 0.632,0.2 1.933,0.07 1.859,-1.03 z m 32.632,47.3 v 0.83 c -1.148,0.37 -0.968,0.22 -2.062,-0.42 l -2.066,0.62 c -0.348,-0.89 -0.938,-1.54 -2.481,-1.24 -0.719,-1.71 -2.695,-2.96 -2.683,-5.16 0.01,-1.16 1.21,-2.3 0.414,-3.3 -3.418,3.59 -11.512,-0.2 -15.7,1.03 0.532,1.6 1.321,2.95 1.86,4.54 0.769,0.21 1.687,1.1 1.035,2.07 -2.774,-0.95 -2.703,-4.74 -5.578,-5.58 -1.117,1.25 -2.367,1.61 -3.719,2.89 -0.148,3.03 -1.598,4.52 -2.684,6.41 -0.449,0.77 -0.281,1.87 -1.445,1.85 l -0.621,-0.62 c -0.16,-1.19 0.574,-1.49 0.414,-2.68 -2.125,-1.16 -5.715,0.32 -8.055,1.45 -0.25,-1.29 0.469,-1.6 0.414,-2.69 -2.16,-1.1 -3.515,0.49 -5.578,-0.41 -1.136,0.72 -1.566,2.15 -3.097,2.48 -1.375,1.17 -1.575,3.52 -3.305,4.33 -0.051,-1.41 0.637,-1.57 1.238,-2.48 0.688,-1.03 1.348,-2.83 2.067,-3.71 0.937,-1.16 2.144,-1.55 2.066,-2.69 -0.105,-1.56 -1.93,-1.64 -3.305,-2.48 -1.289,-5.72 -7.816,-3.95 -12.394,-2.48 2.672,-1.39 6.164,-1.96 8.469,-3.71 -1.528,-1.23 -2.965,-2.54 -3.922,-4.34 -1.215,0.09 -1.524,1.09 -3.102,0.83 -0.18,-1.15 1.117,-0.82 1.449,-1.45 -3.207,-0.74 -4.519,2.06 -8.054,1.45 l -0.414,0.62 0.414,1.44 c -0.914,0.69 -1.629,1.67 -1.446,2.89 -1.464,0.68 -2.707,1.57 -2.894,3.51 -1.012,0.19 -0.559,-1.09 -1.652,-0.82 -0.555,1.72 -1.579,0.56 -3.098,1.24 l -0.617,-1.04 c -2.235,0.51 -2.246,-1.2 -3.512,-1.65 -1.402,0.53 -2.07,1.66 -3.719,1.03 0.059,-1.11 1.946,-0.39 2.27,-1.23 -0.754,-1.93 -1.297,-4.08 -2.27,-5.79 0.856,-0.54 1.356,-1.75 0.824,-3.1 1.282,-1.17 2.579,-2.55 3.098,-3.92 l 1.445,0.41 c 0.649,-0.45 1.286,-0.92 1.45,-1.86 2.011,1.09 4.25,0.98 6.402,1.45 l 0.41,1.45 1.656,0.41 0.207,1.03 c 2.829,-0.38 7.282,0.03 9.5,-1.86 0.645,-2.22 1.114,-4.42 0,-6.61 -0.359,-0.25 -1.375,0.16 -2.273,0 l -1.031,1.04 c -3.614,-0.66 -6.102,-2.44 -7.231,-5.58 0.215,-1.09 0.403,-2.21 0.414,-3.51 0.985,-2.04 3.188,-2.87 4.543,-4.54 l 2.684,0.2 c 2.324,1.19 4.601,2.42 5.371,5.16 3.094,0 3.195,-3 5.164,-4.13 -0.562,-3.08 -1.508,-5.79 -2.273,-8.67 1.523,1.22 2.089,3.75 2.48,6.61 l 2.27,1.03 c 0.523,-0.51 1.398,-0.67 1.449,-1.65 l -0.828,-1.45 c 2.402,0.27 6.261,0.49 5.992,-3.3 1.183,-0.36 0.777,0.87 1.648,0.83 1.961,-1.43 2.395,-7.31 1.242,-9.3 -1.238,1.54 -1.074,3.98 -3.511,3.72 -2.418,-0.26 -2.875,-3.74 -1.239,-5.78 2.114,-0.71 3.997,-2.05 5.161,0.41 2.187,-1.93 0.808,-6.6 -1.239,-7.85 l -1.859,-1.24 0.207,-0.41 c 0.742,-0.43 2.234,-0.11 3.305,-0.21 0.562,-1.02 1.371,-1.79 1.445,-3.3 -0.574,-0.67 -2.328,-1.25 -1.859,-2.27 0.543,1.05 2.793,1.35 3.925,0.61 l 0.414,-2.06 c 1.489,-0.55 2.668,-1.89 4.543,-1.45 l 1.032,-2.48 c 1.195,-0.09 0.832,1.38 2.066,1.24 0.484,-0.62 -0.211,-2.41 1.031,-2.27 l 1.036,2.27 c 1.726,0.46 2.734,-0.03 4.335,0 l 0.622,-1.03 v 1.03 c 0.863,-0.03 0.921,-0.86 2.062,-0.62 v 2.28 c 3.969,0.23 4.352,4.05 6.406,6.19 2.528,0.46 4.211,-1.01 5.782,-0.82 l -2.274,1.24 1.035,1.65 c -1.316,0.07 -1.726,-0.76 -2.48,-1.24 l -2.27,1.03 c -0.238,1.55 0.696,1.92 1.239,2.69 -0.161,1 -0.86,1.48 -0.829,2.68 0.145,0.82 1.512,0.42 1.45,1.45 l -1.86,0.82 c -0.261,1.51 0.106,1.67 0.207,3.1 -1.398,0.4 -2.636,0.95 -2.48,2.89 -1.621,0.24 -3.043,0.68 -2.891,2.69 l -1.652,1.03 0.207,1.03 c -0.461,-1.25 -2.84,-0.32 -3.512,0.21 -0.808,-0.16 -0.805,-1.13 -1.859,-1.03 l -0.414,1.03 c 1.433,0.97 4.265,0.56 5.785,1.45 -0.016,2.21 -1.059,4.4 0.207,6.6 l 0.41,0.21 1.652,-0.41 c 1.809,-2.57 4.977,-2.63 7.438,-4.34 -1.32,2.4 -6.957,2.26 -6.195,7.44 -1.352,0.31 -1.071,-1.87 -2.067,-1.24 0.465,1.67 2.274,1.99 3.098,3.3 4.988,1.45 8.23,-3.1 13.012,-1.44 1.394,5.7 -8.914,4.52 -9.293,8.67 -0.239,2.57 2.078,1.78 3.714,2.48 -0.5,1.64 -2.949,0.37 -3.714,1.44 -0.094,1.82 1.668,1.78 2.683,2.48 -0.336,2.02 1.278,2.16 2.067,3.51 -0.5,1.09 -2.414,0.76 -2.688,2.07 1.125,1.63 2.742,5.13 5.371,3.3 1.184,0.96 1.996,-0.03 2.891,-0.82 0.738,0.92 1.551,0.44 2.687,0.2 1.371,1.79 4.7,3.15 3.508,6.2 0.07,0.83 0.856,0.94 0.828,1.86 -1.511,1.17 -1.687,3.68 -3.926,4.13 z m -20.652,-82.2 c -0.418,1.78 -1.055,3.35 -2.066,4.54 0.398,-1.8 1.105,-3.3 2.066,-4.54 z m 7.024,6.61 c 0.046,-1.18 2.089,-1.29 2.683,-1.24 -0.359,0.95 -1.613,1 -2.683,1.24 z m -71.465,3.1 c -0.793,1.54 -2.719,0.33 -2.891,-0.83 -0.215,-1.45 1.418,-1.84 1.445,-3.1 2.731,-0.89 2.512,2.46 3.719,3.72 l -0.414,0.83 c -0.976,0.15 -1.355,-0.3 -1.859,-0.62 z m 31.187,5.78 c 1.457,-0.27 2.985,-0.46 4.543,-0.62 -0.621,0.96 -3.324,0.94 -4.543,0.62 z m 41.723,8.26 c 1.031,-1.5 2.664,-0.47 4.957,-0.83 -0.582,1.34 -3.359,1.15 -4.957,0.83 z m -46.887,-0.41 -1.652,-0.62 c -0.969,0.33 -1.051,1.56 -1.442,2.48 -0.843,0.15 -0.714,-0.67 -1.656,-0.42 l -1.238,1.45 c -1.895,-0.38 -2.313,0.71 -3.305,1.24 l -1.031,-1.04 c -1.977,0.83 -2.207,-1.77 -4.34,-0.82 -0.68,-2.36 -2.5,-3.69 -5.16,-3.51 -0.074,-1.25 1.394,-0.95 1.652,-1.86 0.36,-1.81 -0.66,-2.24 -0.828,-3.51 0.688,-1.16 1.199,-2.86 1.445,-4.96 1.071,0.04 1.258,-0.81 1.653,-1.45 1.101,0.14 1.808,-0.12 2.066,-0.82 0.227,-1.12 -0.418,-1.37 -0.414,-2.27 0.977,0.47 1.742,1.15 3.102,1.24 0.91,-0.67 1.511,-1.66 3.508,-1.24 l 1.035,1.24 1.445,-1.24 c 0.684,0.41 -0.34,2.34 1.031,2.48 0.867,0.03 0.641,-1.02 1.653,-0.83 0.226,0.94 0.226,1.32 0,2.27 1.359,0.84 1.66,-1.02 2.476,-0.62 l -1.031,1.65 c 0.941,1.28 -0.305,3.71 1.031,4.75 0.918,0.46 3.899,-0.63 5.164,0.42 -4.148,-1.14 -7.437,2.53 -5.164,5.99 z m 70.844,34.9 c 0.57,-0.74 2.266,-0.42 2.273,0.62 -0.468,1.07 -2.3,0.56 -2.273,-0.62 z m -79.723,16.94 c -1.176,0.27 -2.144,0.74 -3.304,1.03 0.05,-1.26 2.484,-1.23 3.304,-1.03 z m 76.625,22.51 v 1.45 c -1.144,0 -1.734,1.1 -2.89,1.44 -1.114,0.33 -2.532,-0.19 -3.305,0.83 -0.371,-0.79 -1.25,-1 -2.273,-0.62 -0.278,-1.72 -2.391,-1.6 -2.27,-3.72 l -0.828,-0.21 0.414,-1.03 -1.031,-1.24 c 1.226,-0.42 1.281,-2.02 1.652,-3.3 1.242,-0.48 1.582,-1.86 2.891,-2.27 -1.653,-0.62 -3.043,-1.51 -3.098,-3.72 4.477,-2.22 4.746,5.32 9.5,4.13 0.945,2.16 3.215,4.08 1.859,6.81 l 1.032,1.24 z m -18.59,8.05 c 1.93,-0.58 3.618,0.77 3.719,2.69 -1.66,0.34 -3.558,-0.65 -3.922,-2.27 z m -35.109,-5.98 c 0.875,-0.25 1.762,-0.3 1.238,-1.45 1.055,0.24 2.078,-0.45 2.895,-1.03 1.5,0.36 2.398,0.07 3.508,-0.42 0.465,1.75 2.183,2.23 3.511,3.1 -0.351,1 -0.109,1.84 0.829,2.07 0.281,2.01 -1.235,2.82 -0.415,4.75 -2.082,0.46 -2.71,2.38 -4.335,3.3 l -1.036,-0.82 -1.238,0.82 c -0.277,-0.97 -1.367,-1.24 -2.48,-0.82 -0.633,-1.43 -1.723,-2.41 -3.094,-3.1 1.074,-0.97 -0.094,-2.45 -0.621,-3.1 0.414,-1.36 1.414,-1.66 1.238,-3.3 z m 0.824,11.77 c 0.36,1.71 -2.59,1.47 -1.652,0 0.918,0.1 1.027,-0.29 1.652,0"
           style="fill:#231f20;fill-opacity:1;fill-rule:evenodd;stroke:none"
           id="path36" />
        <path
           d="m -1205.5713,1885.565 c 0,-16.57 -13.434,-30 -30,-30 -16.57,0 -30,13.43 -30,30 0,16.57 13.43,30 30,30 16.566,0 30,-13.43 30,-30"
           style="fill:#231f20;fill-opacity:1;fill-rule:nonzero;stroke:none"
           id="path38" />
        <path
           d="m -1205.5713,1804.735 c 0,-16.57 -13.434,-30 -30,-30 -16.57,0 -30,13.43 -30,30 0,16.57 13.43,30 30,30 16.566,0 30,-13.43 30,-30"
           style="fill:#231f20;fill-opacity:1;fill-rule:nonzero;stroke:none"
           id="path40" />
        <path
           d="m -1205.5713,1718.065 c 0,-16.57 -13.434,-30 -30,-30 -16.57,0 -30,13.43 -30,30 0,16.57 13.43,30 30,30 16.566,0 30,-13.43 30,-30"
           style="fill:#231f20;fill-opacity:1;fill-rule:nonzero;stroke:none"
           id="path42" />
      </g>
      <g
         id="g2220"
         transform="matrix(2.6662685,0,0,2.6662685,961.97799,-12713.687)">
        <g
           id="g122"
           transform="scale(10)">
          <g
             aria-label="Associates 
Employees 
Assets 
Debtors 
3.2%
20%
20.9%
19.5% "
             transform="scale(1,-1)"
             id="text140"
             style="font-weight:300;font-size:9px;font-family:Lato;-inkscape-font-specification:Lato-Light;fill:#231f20" />
          <text
             xml:space="preserve"
             transform="scale(1,-1)"
             style="font-variant:normal;font-weight:300;font-size:12px;font-family:Lato;-inkscape-font-specification:Lato-Light;writing-mode:lr-tb;fill:#231f20;fill-opacity:1;fill-rule:nonzero;stroke:none"
             id="text146"
             x="261.47351"
             y="-416.00723"><tspan
               x="261.47351 264.20398 269.6571 272.75378 275.65125 282.59924 291.65924 294.78522 302.06921 311.18921 314.44702 325.34302 334.84109 343.96109 350.92108"
               y="-416.00723"
               sodipodi:role="line"
               id="tspan142">(c) THIRD MODEL</tspan><tspan
               sodipodi:role="line"
               id="tspan144"
               x="261.47351"
               y="-401.00723">   Add variation between periods</tspan></text>
        </g>
        <path
           d="m 2645.35,4022.6 c 0.43,0.37 3.06,-0.45 3.51,0.62 -1.25,0.01 -3.69,0.12 -3.51,-0.62 z m 7.23,16.73 c -1.57,-0.98 -3.72,-2.48 -4.34,-3.72 1.52,1.17 3.31,2.06 4.34,3.72 z m 27.26,10.94 c 0.97,-0.34 0.95,-1.66 1.45,-2.47 -1.02,0.25 -2.52,1.4 -1.45,2.47 z m -13.63,-9.91 c 0.63,0.2 1.93,0.07 1.86,-1.03 z m 32.63,47.3 v 0.82 c -1.15,0.38 -0.97,0.23 -2.06,-0.41 l -2.07,0.62 c -0.35,-0.89 -0.93,-1.54 -2.48,-1.24 -0.72,-1.71 -2.69,-2.97 -2.68,-5.16 0,-1.16 1.21,-2.31 0.41,-3.31 -3.42,3.6 -11.51,-0.19 -15.7,1.04 0.53,1.6 1.32,2.94 1.86,4.54 0.77,0.2 1.69,1.1 1.04,2.07 -2.78,-0.95 -2.71,-4.74 -5.58,-5.58 -1.12,1.25 -2.37,1.6 -3.72,2.89 -0.15,3.03 -1.6,4.52 -2.68,6.4 -0.45,0.78 -0.28,1.87 -1.45,1.86 l -0.62,-0.62 c -0.16,-1.19 0.58,-1.49 0.41,-2.69 -2.12,-1.15 -5.71,0.32 -8.05,1.45 -0.25,-1.28 0.47,-1.59 0.41,-2.68 -2.15,-1.1 -3.51,0.49 -5.57,-0.42 -1.14,0.72 -1.57,2.15 -3.1,2.48 -1.38,1.17 -1.57,3.52 -3.31,4.34 -0.05,-1.41 0.64,-1.57 1.24,-2.48 0.69,-1.03 1.35,-2.83 2.07,-3.72 0.94,-1.15 2.14,-1.54 2.06,-2.68 -0.1,-1.56 -1.92,-1.64 -3.3,-2.48 -1.29,-5.72 -7.82,-3.96 -12.39,-2.48 2.67,-1.39 6.16,-1.96 8.46,-3.72 -1.52,-1.22 -2.96,-2.54 -3.92,-4.33 -1.21,0.09 -1.52,1.09 -3.1,0.82 -0.18,-1.14 1.12,-0.81 1.45,-1.44 -3.21,-0.74 -4.52,2.06 -8.06,1.44 l -0.41,0.62 0.41,1.45 c -0.91,0.68 -1.62,1.66 -1.44,2.89 -1.46,0.67 -2.71,1.56 -2.89,3.51 -1.02,0.18 -0.56,-1.1 -1.66,-0.83 -0.55,1.72 -1.58,0.57 -3.09,1.25 l -0.62,-1.04 c -2.23,0.51 -2.25,-1.2 -3.51,-1.65 -1.41,0.52 -2.07,1.66 -3.72,1.03 0.05,-1.11 1.94,-0.4 2.27,-1.24 -0.76,-1.93 -1.3,-4.07 -2.27,-5.78 0.85,-0.54 1.35,-1.76 0.82,-3.1 1.28,-1.18 2.58,-2.55 3.1,-3.92 l 1.45,0.41 c 0.64,-0.45 1.28,-0.92 1.44,-1.86 2.01,1.08 4.25,0.98 6.41,1.45 l 0.41,1.44 1.65,0.42 0.21,1.03 c 2.83,-0.39 7.28,0.03 9.5,-1.86 0.64,-2.22 1.11,-4.42 0,-6.61 -0.36,-0.26 -1.37,0.16 -2.27,0 l -1.04,1.03 c -3.61,-0.65 -6.09,-2.44 -7.23,-5.58 0.22,-1.09 0.41,-2.21 0.42,-3.5 0.98,-2.05 3.19,-2.87 4.54,-4.55 l 2.69,0.21 c 2.32,1.18 4.6,2.42 5.37,5.16 3.09,0 3.19,-3 5.16,-4.13 -0.56,-3.09 -1.51,-5.79 -2.27,-8.67 1.52,1.22 2.09,3.75 2.48,6.61 l 2.27,1.03 c 0.52,-0.51 1.4,-0.67 1.44,-1.66 l -0.82,-1.44 c 2.4,0.27 6.26,0.49 5.99,-3.31 1.18,-0.35 0.78,0.88 1.65,0.83 1.96,-1.43 2.39,-7.3 1.24,-9.29 -1.24,1.54 -1.07,3.97 -3.51,3.71 -2.42,-0.25 -2.88,-3.74 -1.24,-5.78 2.11,-0.7 4,-2.05 5.16,0.41 2.19,-1.92 0.81,-6.59 -1.24,-7.84 l -1.86,-1.24 0.21,-0.42 c 0.74,-0.43 2.23,-0.1 3.3,-0.2 0.57,-1.02 1.38,-1.8 1.45,-3.31 -0.57,-0.66 -2.33,-1.24 -1.86,-2.27 0.55,1.05 2.79,1.36 3.93,0.62 l 0.41,-2.06 c 1.49,-0.56 2.67,-1.89 4.54,-1.45 l 1.04,-2.48 c 1.19,-0.09 0.83,1.37 2.06,1.24 0.48,-0.62 -0.21,-2.41 1.03,-2.27 l 1.04,2.27 c 1.72,0.45 2.73,-0.04 4.33,0 l 0.62,-1.03 v 1.03 c 0.87,-0.03 0.93,-0.87 2.07,-0.62 v 2.27 c 3.97,0.24 4.35,4.05 6.4,6.2 2.53,0.46 4.22,-1.02 5.78,-0.83 l -2.27,1.24 1.04,1.65 c -1.32,0.08 -1.73,-0.75 -2.48,-1.23 l -2.27,1.03 c -0.24,1.54 0.69,1.92 1.23,2.68 -0.16,1.01 -0.85,1.48 -0.82,2.69 0.14,0.82 1.51,0.42 1.44,1.44 l -1.85,0.83 c -0.27,1.51 0.1,1.67 0.2,3.1 -1.39,0.39 -2.63,0.94 -2.48,2.89 -1.62,0.23 -3.04,0.68 -2.89,2.68 l -1.65,1.04 0.21,1.03 c -0.46,-1.25 -2.84,-0.32 -3.51,0.21 -0.81,-0.16 -0.81,-1.13 -1.86,-1.03 l -0.42,1.03 c 1.44,0.97 4.27,0.55 5.79,1.44 -0.02,2.22 -1.06,4.4 0.2,6.61 l 0.42,0.21 1.65,-0.42 c 1.81,-2.57 4.97,-2.62 7.43,-4.33 -1.32,2.4 -6.95,2.26 -6.19,7.43 -1.35,0.32 -1.07,-1.86 -2.07,-1.24 0.47,1.67 2.28,2 3.1,3.31 4.99,1.44 8.23,-3.11 13.01,-1.45 1.4,5.71 -8.91,4.53 -9.29,8.68 -0.24,2.57 2.08,1.78 3.72,2.48 -0.51,1.64 -2.96,0.36 -3.72,1.44 -0.09,1.81 1.67,1.77 2.68,2.48 -0.33,2.01 1.28,2.16 2.07,3.51 -0.5,1.08 -2.41,0.76 -2.69,2.07 1.13,1.63 2.74,5.12 5.37,3.3 1.19,0.95 2,-0.03 2.89,-0.82 0.74,0.91 1.55,0.43 2.69,0.2 1.37,1.78 4.7,3.15 3.51,6.2 0.07,0.82 0.86,0.93 0.83,1.86 -1.51,1.17 -1.69,3.68 -3.93,4.13 z m -20.65,-82.2 c -0.42,1.78 -1.06,3.34 -2.07,4.54 0.4,-1.8 1.11,-3.3 2.07,-4.54 z m 7.02,6.6 c 0.05,-1.17 2.09,-1.28 2.69,-1.24 -0.36,0.95 -1.62,1.01 -2.69,1.24 z m -71.46,3.1 c -0.79,1.55 -2.72,0.34 -2.89,-0.82 -0.22,-1.46 1.41,-1.84 1.44,-3.1 2.73,-0.89 2.51,2.45 3.72,3.72 l -0.41,0.82 c -0.98,0.15 -1.36,-0.29 -1.86,-0.62 z m 31.19,5.79 c 1.45,-0.27 2.98,-0.47 4.54,-0.63 -0.62,0.97 -3.33,0.94 -4.54,0.63 z m 41.72,8.26 c 1.03,-1.5 2.66,-0.47 4.95,-0.83 -0.58,1.33 -3.36,1.14 -4.95,0.83 z m -46.89,-0.42 -1.65,-0.62 c -0.97,0.34 -1.05,1.57 -1.44,2.48 -0.85,0.15 -0.72,-0.67 -1.66,-0.41 l -1.24,1.44 c -1.89,-0.37 -2.31,0.72 -3.3,1.25 l -1.03,-1.04 c -1.98,0.82 -2.21,-1.77 -4.34,-0.82 -0.68,-2.36 -2.5,-3.69 -5.16,-3.52 -0.08,-1.24 1.39,-0.94 1.65,-1.85 0.36,-1.81 -0.66,-2.24 -0.83,-3.52 0.69,-1.15 1.2,-2.85 1.45,-4.95 1.07,0.03 1.25,-0.81 1.65,-1.45 1.1,0.14 1.81,-0.12 2.06,-0.82 0.23,-1.12 -0.41,-1.38 -0.41,-2.28 0.98,0.47 1.74,1.15 3.1,1.24 0.91,-0.67 1.51,-1.65 3.51,-1.24 l 1.03,1.24 1.45,-1.24 c 0.68,0.41 -0.34,2.35 1.03,2.48 0.87,0.04 0.64,-1.01 1.65,-0.82 0.23,0.94 0.23,1.32 0,2.27 1.36,0.84 1.66,-1.02 2.48,-0.62 l -1.03,1.65 c 0.94,1.27 -0.31,3.7 1.03,4.75 0.92,0.46 3.9,-0.63 5.17,0.41 -4.15,-1.14 -7.44,2.54 -5.17,5.99 z m 70.85,34.91 c 0.56,-0.74 2.26,-0.42 2.27,0.62 -0.47,1.07 -2.3,0.56 -2.27,-0.62 z m -79.73,16.93 c -1.17,0.27 -2.14,0.75 -3.3,1.04 0.05,-1.26 2.48,-1.23 3.3,-1.04 z m 76.63,22.51 v 1.45 c -1.15,0 -1.74,1.11 -2.89,1.45 -1.12,0.33 -2.53,-0.19 -3.31,0.82 -0.37,-0.79 -1.25,-0.99 -2.27,-0.61 -0.28,-1.72 -2.39,-1.61 -2.27,-3.72 l -0.83,-0.21 0.41,-1.03 -1.03,-1.24 c 1.23,-0.42 1.28,-2.02 1.65,-3.3 1.25,-0.48 1.59,-1.86 2.9,-2.28 -1.66,-0.62 -3.05,-1.5 -3.1,-3.72 4.48,-2.21 4.74,5.33 9.5,4.14 0.94,2.16 3.21,4.07 1.86,6.81 l 1.03,1.24 z m -18.59,8.06 c 1.93,-0.59 3.62,0.77 3.72,2.69 -1.67,0.33 -3.56,-0.65 -3.93,-2.27 z m -35.11,-5.99 c 0.87,-0.25 1.76,-0.29 1.24,-1.44 1.05,0.24 2.07,-0.45 2.89,-1.04 1.5,0.37 2.4,0.07 3.51,-0.41 0.46,1.74 2.18,2.22 3.51,3.1 -0.35,0.99 -0.11,1.83 0.83,2.06 0.28,2.02 -1.23,2.82 -0.42,4.75 -2.08,0.47 -2.71,2.39 -4.33,3.31 l -1.04,-0.83 -1.24,0.83 c -0.27,-0.97 -1.36,-1.24 -2.47,-0.83 -0.64,-1.42 -1.73,-2.4 -3.1,-3.09 1.07,-0.98 -0.09,-2.45 -0.62,-3.1 0.41,-1.36 1.41,-1.66 1.24,-3.31 z m 0.82,11.77 c 0.36,1.71 -2.59,1.48 -1.65,0 0.92,0.1 1.03,-0.28 1.65,0"
           style="fill:#231f20;fill-opacity:1;fill-rule:evenodd;stroke:none"
           id="path148" />
        <g
           id="g150"
           transform="scale(10)">
          <text
             xml:space="preserve"
             transform="matrix(1,0,0,-1,274.52,385.635)"
             style="font-variant:normal;font-weight:300;font-size:12px;font-family:Lato;-inkscape-font-specification:Lato-Light;writing-mode:lr-tb;fill:#231f20;fill-opacity:1;fill-rule:nonzero;stroke:none"
             id="text154"><tspan
               x="0 7.8662014 14.477542 21.089542 24.059265 29.963551 35.771549 40.013729 42.683659 48.491661 55.103661 57.755024 64.013809 69.113815 72.37162 78.179626 83.280235 86.538017 90.647415 97.248001 103.50581 106.76363 114.87563 122.74084 133.63736 140.59737 146.66862 153.08862 156.34644 162.15503 168.75502 175.36702 178.62483 185.90883 189.03381 195.45381"
               y="0"
               sodipodi:role="line"
               id="tspan152">Add variables as the CAMELS and RISK</tspan></text>
        </g>
        <path
           d="m 2645.35,3852.6 c 0.42,0.37 3.06,-0.45 3.51,0.62 -1.26,0.01 -3.7,0.12 -3.51,-0.62 z m 7.23,16.73 c -1.58,-0.98 -3.72,-2.48 -4.34,-3.72 1.51,1.17 3.31,2.06 4.34,3.72 z m 27.26,10.94 c 0.96,-0.34 0.95,-1.66 1.44,-2.47 -1.01,0.25 -2.52,1.4 -1.44,2.47 z m -13.63,-9.91 c 0.63,0.2 1.93,0.07 1.86,-1.03 z m 32.63,47.3 v 0.82 c -1.15,0.38 -0.97,0.23 -2.07,-0.41 l -2.06,0.62 c -0.35,-0.89 -0.94,-1.54 -2.48,-1.24 -0.72,-1.71 -2.69,-2.97 -2.68,-5.16 0,-1.16 1.21,-2.31 0.41,-3.31 -3.42,3.6 -11.51,-0.19 -15.7,1.04 0.53,1.6 1.32,2.94 1.86,4.54 0.77,0.2 1.69,1.1 1.03,2.07 -2.77,-0.95 -2.7,-4.74 -5.57,-5.58 -1.12,1.25 -2.37,1.6 -3.72,2.89 -0.15,3.03 -1.6,4.52 -2.69,6.4 -0.45,0.78 -0.28,1.87 -1.44,1.86 l -0.62,-0.62 c -0.16,-1.19 0.57,-1.49 0.41,-2.69 -2.12,-1.15 -5.71,0.32 -8.05,1.45 -0.25,-1.28 0.47,-1.59 0.41,-2.68 -2.16,-1.1 -3.51,0.49 -5.58,-0.42 -1.13,0.72 -1.56,2.15 -3.09,2.48 -1.38,1.17 -1.58,3.52 -3.31,4.34 -0.05,-1.41 0.64,-1.57 1.24,-2.48 0.69,-1.03 1.35,-2.83 2.07,-3.72 0.93,-1.15 2.14,-1.54 2.06,-2.68 -0.11,-1.56 -1.93,-1.64 -3.3,-2.48 -1.29,-5.72 -7.82,-3.96 -12.4,-2.48 2.68,-1.39 6.17,-1.96 8.47,-3.72 -1.53,-1.22 -2.96,-2.54 -3.92,-4.33 -1.22,0.09 -1.52,1.09 -3.1,0.82 -0.18,-1.14 1.11,-0.81 1.45,-1.44 -3.21,-0.74 -4.52,2.06 -8.06,1.44 l -0.41,0.62 0.41,1.45 c -0.91,0.68 -1.63,1.66 -1.44,2.89 -1.47,0.67 -2.71,1.56 -2.9,3.51 -1.01,0.18 -0.55,-1.1 -1.65,-0.83 -0.56,1.72 -1.58,0.57 -3.1,1.25 l -0.62,-1.04 c -2.23,0.51 -2.24,-1.2 -3.51,-1.65 -1.4,0.52 -2.07,1.66 -3.72,1.03 0.06,-1.11 1.95,-0.4 2.28,-1.24 -0.76,-1.93 -1.3,-4.07 -2.28,-5.78 0.86,-0.54 1.36,-1.76 0.83,-3.1 1.28,-1.18 2.58,-2.55 3.1,-3.92 l 1.44,0.41 c 0.65,-0.45 1.29,-0.92 1.45,-1.86 2.01,1.08 4.25,0.98 6.4,1.45 l 0.42,1.44 1.65,0.42 0.21,1.03 c 2.83,-0.39 7.28,0.03 9.5,-1.86 0.64,-2.22 1.11,-4.42 0,-6.61 -0.36,-0.26 -1.38,0.16 -2.28,0 l -1.03,1.03 c -3.61,-0.65 -6.1,-2.44 -7.23,-5.58 0.22,-1.09 0.41,-2.21 0.42,-3.5 0.98,-2.05 3.18,-2.87 4.54,-4.55 l 2.68,0.21 c 2.33,1.18 4.61,2.42 5.37,5.16 3.1,0 3.2,-3 5.17,-4.13 -0.56,-3.09 -1.51,-5.79 -2.27,-8.67 1.52,1.22 2.09,3.75 2.47,6.61 l 2.28,1.03 c 0.52,-0.51 1.39,-0.67 1.44,-1.66 l -0.82,-1.44 c 2.4,0.27 6.26,0.49 5.99,-3.31 1.18,-0.35 0.77,0.88 1.65,0.83 1.96,-1.43 2.39,-7.3 1.24,-9.29 -1.24,1.54 -1.07,3.97 -3.51,3.71 -2.42,-0.25 -2.88,-3.74 -1.24,-5.78 2.11,-0.7 3.99,-2.05 5.16,0.41 2.18,-1.92 0.81,-6.59 -1.24,-7.84 l -1.86,-1.24 0.21,-0.42 c 0.74,-0.43 2.23,-0.1 3.3,-0.2 0.57,-1.02 1.37,-1.8 1.45,-3.31 -0.58,-0.66 -2.33,-1.24 -1.86,-2.27 0.54,1.05 2.79,1.36 3.92,0.62 l 0.42,-2.06 c 1.49,-0.56 2.67,-1.89 4.54,-1.45 l 1.03,-2.48 c 1.2,-0.09 0.83,1.37 2.07,1.24 0.48,-0.62 -0.21,-2.41 1.03,-2.27 l 1.03,2.27 c 1.73,0.45 2.74,-0.04 4.34,0 l 0.62,-1.03 v 1.03 c 0.87,-0.03 0.92,-0.87 2.07,-0.62 v 2.27 c 3.96,0.24 4.35,4.05 6.4,6.2 2.53,0.46 4.21,-1.02 5.78,-0.83 l -2.27,1.24 1.03,1.65 c -1.31,0.08 -1.72,-0.75 -2.48,-1.23 l -2.27,1.03 c -0.23,1.54 0.7,1.92 1.24,2.68 -0.16,1.01 -0.86,1.48 -0.82,2.69 0.14,0.82 1.51,0.42 1.44,1.44 l -1.86,0.83 c -0.26,1.51 0.11,1.67 0.21,3.1 -1.4,0.39 -2.64,0.94 -2.48,2.89 -1.62,0.23 -3.04,0.68 -2.89,2.68 l -1.65,1.04 0.2,1.03 c -0.46,-1.25 -2.84,-0.32 -3.51,0.21 -0.8,-0.16 -0.8,-1.13 -1.86,-1.03 l -0.41,1.03 c 1.44,0.97 4.26,0.55 5.78,1.44 -0.01,2.22 -1.05,4.4 0.21,6.61 l 0.41,0.21 1.66,-0.42 c 1.8,-2.57 4.97,-2.62 7.43,-4.33 -1.32,2.4 -6.96,2.26 -6.19,7.43 -1.36,0.32 -1.07,-1.86 -2.07,-1.24 0.46,1.67 2.27,2 3.1,3.31 4.99,1.44 8.23,-3.11 13.01,-1.45 1.39,5.71 -8.91,4.53 -9.29,8.68 -0.24,2.57 2.07,1.78 3.71,2.48 -0.5,1.64 -2.95,0.36 -3.71,1.44 -0.1,1.81 1.67,1.77 2.68,2.48 -0.33,2.01 1.28,2.16 2.07,3.51 -0.5,1.08 -2.42,0.76 -2.69,2.07 1.12,1.63 2.74,5.12 5.37,3.3 1.18,0.95 2,-0.03 2.89,-0.82 0.74,0.91 1.55,0.43 2.69,0.2 1.37,1.78 4.7,3.15 3.51,6.2 0.07,0.82 0.85,0.93 0.82,1.86 -1.51,1.17 -1.68,3.68 -3.92,4.13 z m -20.65,-82.2 c -0.42,1.78 -1.06,3.34 -2.07,4.54 0.4,-1.8 1.11,-3.3 2.07,-4.54 z m 7.02,6.6 c 0.05,-1.17 2.09,-1.28 2.68,-1.24 -0.36,0.95 -1.61,1.01 -2.68,1.24 z m -71.46,3.1 c -0.8,1.55 -2.72,0.34 -2.89,-0.82 -0.22,-1.46 1.41,-1.84 1.44,-3.1 2.73,-0.89 2.51,2.45 3.72,3.72 l -0.42,0.82 c -0.97,0.15 -1.35,-0.29 -1.85,-0.62 z m 31.18,5.79 c 1.46,-0.27 2.98,-0.47 4.55,-0.63 -0.62,0.97 -3.33,0.94 -4.55,0.63 z m 41.72,8.26 c 1.04,-1.5 2.67,-0.47 4.96,-0.83 -0.58,1.33 -3.36,1.14 -4.96,0.83 z m -46.88,-0.42 -1.65,-0.62 c -0.97,0.34 -1.05,1.57 -1.45,2.48 -0.84,0.15 -0.71,-0.67 -1.65,-0.41 l -1.24,1.44 c -1.89,-0.37 -2.31,0.72 -3.3,1.25 l -1.04,-1.04 c -1.97,0.82 -2.2,-1.77 -4.33,-0.82 -0.69,-2.36 -2.51,-3.69 -5.17,-3.52 -0.07,-1.24 1.4,-0.94 1.65,-1.85 0.36,-1.81 -0.65,-2.24 -0.82,-3.52 0.69,-1.15 1.2,-2.85 1.44,-4.95 1.07,0.03 1.26,-0.81 1.66,-1.45 1.1,0.14 1.8,-0.12 2.06,-0.82 0.23,-1.12 -0.41,-1.38 -0.41,-2.28 0.98,0.47 1.74,1.15 3.1,1.24 0.91,-0.67 1.51,-1.65 3.51,-1.24 l 1.03,1.24 1.45,-1.24 c 0.68,0.41 -0.34,2.35 1.03,2.48 0.87,0.04 0.64,-1.01 1.65,-0.82 0.23,0.94 0.23,1.32 0,2.27 1.36,0.84 1.66,-1.02 2.48,-0.62 l -1.03,1.65 c 0.94,1.27 -0.31,3.7 1.03,4.75 0.92,0.46 3.9,-0.63 5.16,0.41 -4.14,-1.14 -7.43,2.54 -5.16,5.99 z m 70.84,34.91 c 0.57,-0.74 2.27,-0.42 2.27,0.62 -0.47,1.07 -2.3,0.56 -2.27,-0.62 z m -79.72,16.93 c -1.18,0.27 -2.15,0.75 -3.31,1.04 0.06,-1.26 2.49,-1.23 3.31,-1.04 z m 76.62,22.51 v 1.45 c -1.14,0 -1.73,1.11 -2.89,1.45 -1.11,0.33 -2.53,-0.19 -3.3,0.82 -0.37,-0.79 -1.25,-0.99 -2.27,-0.61 -0.28,-1.72 -2.4,-1.61 -2.28,-3.72 l -0.82,-0.21 0.41,-1.03 -1.03,-1.24 c 1.23,-0.42 1.28,-2.02 1.65,-3.3 1.25,-0.48 1.59,-1.86 2.89,-2.28 -1.65,-0.62 -3.04,-1.5 -3.1,-3.72 4.48,-2.21 4.75,5.33 9.51,4.14 0.94,2.16 3.21,4.07 1.85,6.81 l 1.04,1.24 z m -18.58,8.06 c 1.92,-0.59 3.61,0.77 3.71,2.69 -1.66,0.33 -3.55,-0.65 -3.92,-2.28 z m -35.12,-5.99 c 0.88,-0.25 1.77,-0.29 1.24,-1.44 1.06,0.24 2.08,-0.45 2.9,-1.04 1.5,0.37 2.4,0.07 3.51,-0.41 0.46,1.74 2.18,2.22 3.51,3.1 -0.35,0.99 -0.11,1.83 0.82,2.06 0.29,2.02 -1.23,2.82 -0.41,4.75 -2.08,0.47 -2.71,2.39 -4.34,3.31 l -1.03,-0.83 -1.24,0.83 c -0.28,-0.97 -1.37,-1.24 -2.48,-0.83 -0.63,-1.42 -1.72,-2.4 -3.09,-3.1 1.07,-0.97 -0.1,-2.44 -0.62,-3.09 0.41,-1.36 1.41,-1.66 1.23,-3.31 z m 0.83,11.77 c 0.36,1.71 -2.59,1.48 -1.65,0 0.91,0.1 1.03,-0.28 1.65,0"
           style="fill:#231f20;fill-opacity:1;fill-rule:evenodd;stroke:none"
           id="path156" />
        <path
           d="M 5018.45,2293.1 H 2653.78 c -53.62,0 -97.5,43.87 -97.5,97.5 v 1268.2 c 0,53.62 43.88,97.5 97.5,97.5 h 2364.67 c 53.63,0 97.5,-43.88 97.5,-97.5 V 2390.6 c 0,-53.63 -43.87,-97.5 -97.5,-97.5"
           style="fill:#f8f8fa;fill-opacity:1;fill-rule:nonzero;stroke:none"
           id="path158" />
        <g
           id="g160"
           transform="scale(10)">
          <text
             xml:space="preserve"
             transform="matrix(1,0,0,-1,324.064,343.79)"
             style="font-variant:normal;font-weight:300;font-size:12px;font-family:Lato;-inkscape-font-specification:Lato-Light;writing-mode:lr-tb;fill:#231f20;fill-opacity:1;fill-rule:nonzero;stroke:none"
             id="text166"><tspan
               x="0 6.96 14.436 22.3022 33.1982 40.134201 46.2062 53.166203 56.424011 64.3918 73.889854 84.786362 91.133987 98.999214 108.05975"
               y="0"
               sodipodi:role="line"
               id="tspan162">EXAMPLE COMPANY</tspan><tspan
               x="-28.9711 -22.5511 -13.0591 -4.9421926 -1.8162113 6.0499897 11.767767 15.025578 21.794123 29.761908 39.259964 48.319962 57.818016 68.713509 75.403946 78.661758 86.629562 96.127617 107.02362 113.37222 121.23744 130.29797"
               y="-18.0613"
               sodipodi:role="line"
               id="tspan164">SOCIAL ECONOMY COMPANY</tspan></text>
        </g>
        <path
           d="m 4772.65,2372.52 h -2015 v 1003.75 h 2015 V 2372.52"
           style="fill:#edecec;fill-opacity:1;fill-rule:nonzero;stroke:none"
           id="path168" />
        <g
           id="g170"
           transform="scale(10)">
          <text
             xml:space="preserve"
             transform="matrix(1,0,0,-1,311.829,326.469)"
             style="font-variant:normal;font-weight:300;font-size:9px;font-family:Lato;-inkscape-font-specification:Lato-Light;writing-mode:lr-tb;fill:#231f20;fill-opacity:1;fill-rule:nonzero;stroke:none"
             id="text208"><tspan
               x="0 6.0840001 11.547 16.767 23.607 25.951248 30.892155 33.335526 38.798527 41.142773 45.957775"
               y="0"
               sodipodi:role="line"
               id="tspan172">CREDIT RISK</tspan><tspan
               x="-5.7148399 -1.16084 1.183408 8.3069487 14.849949 17.194197 24.034197 26.378933 31.589933 36.607506 39.050877 44.513878 46.858612 51.673077"
               y="10.8"
               sodipodi:role="line"
               id="tspan174">LIQUIDITY RISK</tspan><tspan
               x="-8.3457003 -1.222159 3.979841 9.1998405 14.662841 20.56226 25.77326 28.117508 34.016926 39.236927 41.680786 47.143784 49.488033 54.303032"
               y="21.6"
               sodipodi:role="line"
               id="tspan176">OPERATIVE RISK</tspan><tspan
               x="7.5570002 12.277225 18.176643 23.639643 28.193644 34.093037 39.17363"
               y="32.400002"
               sodipodi:role="line"
               id="tspan178">SARLAFT</tspan><tspan
               x="8.6851301 14.76913 20.664129 25.86989 28.214626 32.800064 38.699482"
               y="43.200001"
               sodipodi:role="line"
               id="tspan180">CAPITAL</tspan><tspan
               x="12.99099 18.88599 23.700991 28.515989 33.735989"
               y="54"
               sodipodi:role="line"
               id="tspan182">ASSET</tspan><tspan
               x="-11.79181 -5.8968101 0.94318998 9.1151896 11.463271 18.25827 20.60252 25.417519 30.628519 36.091518 41.990936 47.201939 49.546673 56.669727"
               y="64.800003"
               sodipodi:role="line"
               id="tspan184">ADMINISTRATION</tspan><tspan
               x="-4.5769701 0.62502998 6.0566826 13.180223 18.260788 20.605038 25.190475 31.089895 36.777893 39.122631 43.676632 46.021393 51.232391"
               y="75.599998"
               sodipodi:role="line"
               id="tspan186">PROFITABILITY</tspan><tspan
               x="4.6749802 9.2289801 11.573228 18.69677 25.239769 27.584017 34.424019 36.768753 41.979752"
               y="86.400002"
               sodipodi:role="line"
               id="tspan188">LIQUIDITY</tspan><tspan
               x="109.39898 114.61898 116.71598"
               y="-0.00079999998"
               sodipodi:role="line"
               id="tspan190">3.5</tspan><tspan
               x="113.05875"
               y="10.8"
               id="tspan192">3</tspan><tspan
               x="113.05875"
               y="21.599199"
               id="tspan194">5</tspan><tspan
               x="113.05875"
               y="32.3992"
               id="tspan196">2</tspan><tspan
               x="113.05875"
               y="43.1992"
               id="tspan198">2</tspan><tspan
               x="113.05875"
               y="53.999199"
               id="tspan200">3</tspan><tspan
               x="106.78883 112.00883 114.10583 119.32583"
               y="64.800003"
               sodipodi:role="line"
               id="tspan202">3.75</tspan><tspan
               x="106.78883 112.00883 114.10583 119.32583"
               y="75.599197"
               sodipodi:role="line"
               id="tspan204">3.66</tspan><tspan
               x="113.05875"
               y="86.3992"
               id="tspan206">3</tspan></text>
        </g>
        <path
           d="M 2315,4442.49 V 2159.16"
           style="fill:#edecec;fill-opacity:1;fill-rule:nonzero;stroke:none"
           id="path232" />
      </g>
      <g
         id="g2406"
         transform="matrix(2.6662685,0,0,2.6662685,-5031.2031,-6874.7151)">
        <g
           id="g44"
           transform="scale(10)">
          <text
             xml:space="preserve"
             transform="scale(1,-1)"
             style="font-variant:normal;font-weight:300;font-size:12px;font-family:Lato;-inkscape-font-specification:Lato-Light;writing-mode:lr-tb;fill:#231f20;fill-opacity:1;fill-rule:nonzero;stroke:none"
             id="text50"
             x="57.23008"
             y="-197.01309"><tspan
               x="57.23008 60.326077 66.578033 69.674034 72.932823 79.352821 86.120415 94.088181 103.58624 112.64623 121.76624 125.02405 135.92056 145.41859 154.53775 161.49774"
               y="-197.01309"
               sodipodi:role="line"
               id="tspan46">(b) SECOND MODEL</tspan><tspan
               sodipodi:role="line"
               id="tspan48"
               x="57.23008"
               y="-182.01309" /><tspan
               sodipodi:role="line"
               x="57.23008"
               y="-167.01309"
               id="tspan3396">Add variation between periods</tspan></text>
        </g>
        <path
           d="M 2902.66,89.1484 H 537.992 c -53.625,0 -97.5,43.8826 -97.5,97.4996 V 1454.85 c 0,53.62 43.875,97.5 97.5,97.5 H 2902.66 c 53.62,0 97.5,-43.88 97.5,-97.5 V 186.648 c 0,-53.617 -43.88,-97.4996 -97.5,-97.4996"
           style="fill:#f8f8fa;fill-opacity:1;fill-rule:nonzero;stroke:none"
           id="path52" />
        <path
           d="m 508.336,1662.32 c 0.426,0.37 3.059,-0.45 3.512,0.62 -1.254,0 -3.696,0.12 -3.512,-0.62 z m 7.23,16.73 c -1.57,-0.98 -3.718,-2.48 -4.339,-3.72 1.515,1.17 3.312,2.06 4.339,3.72 z m 27.262,10.94 c 0.965,-0.34 0.953,-1.66 1.445,-2.48 -1.015,0.26 -2.519,1.41 -1.445,2.48 z m -13.633,-9.91 c 0.633,0.2 1.934,0.07 1.86,-1.03 z m 32.633,47.3 v 0.82 c -1.148,0.37 -0.969,0.23 -2.062,-0.41 l -2.067,0.62 c -0.347,-0.89 -0.937,-1.54 -2.476,-1.24 -0.723,-1.71 -2.7,-2.97 -2.688,-5.16 0.008,-1.16 1.211,-2.3 0.414,-3.31 -3.418,3.59 -11.511,-0.2 -15.695,1.03 0.527,1.61 1.316,2.95 1.855,4.55 0.77,0.2 1.688,1.1 1.036,2.06 -2.778,-0.94 -2.704,-4.73 -5.579,-5.57 -1.117,1.25 -2.367,1.6 -3.718,2.89 -0.149,3.03 -1.594,4.52 -2.684,6.4 -0.449,0.78 -0.281,1.87 -1.445,1.86 l -0.621,-0.62 c -0.16,-1.19 0.578,-1.49 0.414,-2.69 -2.125,-1.15 -5.715,0.32 -8.055,1.45 -0.25,-1.28 0.469,-1.6 0.41,-2.68 -2.152,-1.1 -3.512,0.49 -5.574,-0.42 -1.137,0.72 -1.57,2.15 -3.098,2.48 -1.379,1.17 -1.574,3.52 -3.304,4.34 -0.051,-1.41 0.636,-1.57 1.238,-2.48 0.687,-1.04 1.348,-2.83 2.066,-3.72 0.938,-1.15 2.145,-1.55 2.067,-2.68 -0.11,-1.56 -1.93,-1.65 -3.305,-2.48 -1.289,-5.72 -7.816,-3.96 -12.394,-2.48 2.671,-1.39 6.164,-1.96 8.468,-3.72 -1.527,-1.22 -2.965,-2.54 -3.922,-4.33 -1.214,0.09 -1.523,1.09 -3.101,0.82 -0.18,-1.14 1.113,-0.81 1.445,-1.44 -3.203,-0.74 -4.515,2.05 -8.051,1.44 l -0.414,0.62 0.414,1.45 c -0.914,0.68 -1.629,1.66 -1.449,2.89 -1.461,0.67 -2.703,1.56 -2.89,3.51 -1.012,0.18 -0.559,-1.1 -1.653,-0.83 -0.555,1.72 -1.578,0.57 -3.097,1.24 l -0.618,-1.03 c -2.23,0.51 -2.246,-1.2 -3.511,-1.65 -1.407,0.52 -2.071,1.66 -3.719,1.03 0.055,-1.11 1.945,-0.4 2.269,-1.24 -0.754,-1.93 -1.296,-4.07 -2.269,-5.78 0.855,-0.54 1.355,-1.76 0.824,-3.1 1.281,-1.18 2.578,-2.55 3.102,-3.92 l 1.445,0.41 c 0.644,-0.46 1.281,-0.92 1.445,-1.86 2.012,1.08 4.25,0.98 6.403,1.45 l 0.414,1.44 1.648,0.41 0.207,1.04 c 2.832,-0.39 7.285,0.03 9.5,-1.86 0.649,-2.22 1.117,-4.43 0,-6.61 -0.355,-0.26 -1.367,0.16 -2.269,0 l -1.032,1.03 c -3.613,-0.66 -6.101,-2.44 -7.23,-5.58 0.215,-1.09 0.402,-2.21 0.414,-3.51 0.984,-2.04 3.187,-2.86 4.543,-4.54 l 2.684,0.21 c 2.324,1.18 4.605,2.42 5.371,5.16 3.093,0 3.195,-3 5.164,-4.13 -0.563,-3.09 -1.508,-5.79 -2.274,-8.68 1.524,1.23 2.09,3.75 2.481,6.61 l 2.269,1.04 c 0.524,-0.51 1.399,-0.67 1.449,-1.66 l -0.828,-1.44 c 2.403,0.26 6.262,0.49 5.989,-3.31 1.187,-0.35 0.781,0.88 1.652,0.83 1.961,-1.43 2.394,-7.3 1.242,-9.29 -1.238,1.54 -1.074,3.97 -3.512,3.71 -2.418,-0.25 -2.875,-3.74 -1.242,-5.78 2.114,-0.7 4,-2.05 5.164,0.41 2.188,-1.92 0.809,-6.59 -1.238,-7.84 l -1.859,-1.24 0.207,-0.42 c 0.742,-0.43 2.234,-0.1 3.304,-0.2 0.563,-1.02 1.371,-1.8 1.446,-3.31 -0.575,-0.67 -2.328,-1.24 -1.86,-2.27 0.543,1.05 2.793,1.36 3.926,0.62 l 0.414,-2.07 c 1.488,-0.55 2.668,-1.88 4.543,-1.44 l 1.031,-2.48 c 1.196,-0.09 0.832,1.37 2.067,1.24 0.48,-0.62 -0.211,-2.41 1.031,-2.27 l 1.035,2.27 c 1.727,0.45 2.731,-0.04 4.336,0 l 0.621,-1.03 v 1.03 c 0.863,-0.03 0.918,-0.87 2.063,-0.62 v 2.27 c 3.968,0.23 4.351,4.05 6.406,6.2 2.527,0.46 4.211,-1.02 5.781,-0.83 l -2.273,1.24 1.035,1.65 c -1.316,0.08 -1.727,-0.75 -2.481,-1.24 l -2.269,1.04 c -0.238,1.54 0.695,1.92 1.238,2.68 -0.16,1.01 -0.859,1.48 -0.828,2.69 0.145,0.82 1.512,0.41 1.449,1.44 l -1.859,0.83 c -0.262,1.51 0.105,1.67 0.207,3.1 -1.398,0.39 -2.637,0.94 -2.481,2.89 -1.621,0.23 -3.042,0.67 -2.89,2.68 l -1.652,1.04 0.207,1.03 c -0.461,-1.25 -2.84,-0.33 -3.512,0.2 -0.809,-0.15 -0.805,-1.12 -1.86,-1.03 l -0.414,1.03 c 1.438,0.98 4.262,0.56 5.786,1.45 -0.016,2.21 -1.059,4.4 0.207,6.61 l 0.41,0.21 1.652,-0.42 c 1.809,-2.57 4.977,-2.62 7.438,-4.33 -1.325,2.4 -6.957,2.26 -6.196,7.43 -1.351,0.32 -1.07,-1.86 -2.066,-1.24 0.465,1.67 2.273,2 3.098,3.31 4.988,1.44 8.23,-3.11 13.011,-1.45 1.395,5.7 -8.914,4.53 -9.293,8.68 -0.238,2.56 2.078,1.77 3.715,2.47 -0.5,1.64 -2.949,0.37 -3.715,1.45 -0.093,1.81 1.668,1.77 2.684,2.48 -0.336,2.01 1.277,2.16 2.066,3.51 -0.5,1.08 -2.414,0.75 -2.687,2.06 1.125,1.64 2.742,5.13 5.371,3.31 1.183,0.95 1.996,-0.03 2.89,-0.83 0.739,0.92 1.551,0.44 2.688,0.21 1.371,1.78 4.699,3.15 3.512,6.2 0.066,0.82 0.851,0.93 0.824,1.86 -1.512,1.17 -1.688,3.68 -3.926,4.13 z m -20.652,-82.21 c -0.418,1.79 -1.055,3.35 -2.067,4.55 0.399,-1.81 1.106,-3.3 2.067,-4.55 z m 7.023,6.61 c 0.047,-1.17 2.086,-1.28 2.684,-1.24 -0.36,0.95 -1.613,1.01 -2.684,1.24 z m -71.465,3.1 c -0.793,1.55 -2.718,0.34 -2.89,-0.83 -0.215,-1.45 1.418,-1.83 1.445,-3.09 2.731,-0.9 2.512,2.45 3.719,3.71 l -0.414,0.83 c -0.977,0.15 -1.356,-0.29 -1.86,-0.62 z m 31.188,5.78 c 1.457,-0.26 2.98,-0.46 4.547,-0.62 -0.625,0.97 -3.328,0.94 -4.547,0.62 z m 41.723,8.26 c 1.031,-1.49 2.664,-0.46 4.957,-0.82 -0.582,1.33 -3.364,1.14 -4.957,0.82 z m -46.883,-0.41 -1.657,-0.62 c -0.968,0.34 -1.05,1.57 -1.445,2.48 -0.84,0.15 -0.711,-0.66 -1.652,-0.41 l -1.238,1.44 c -1.891,-0.37 -2.313,0.72 -3.305,1.24 l -1.031,-1.03 c -1.977,0.82 -2.207,-1.77 -4.336,-0.83 -0.684,-2.35 -2.504,-3.68 -5.164,-3.51 -0.075,-1.24 1.394,-0.94 1.652,-1.86 0.359,-1.8 -0.656,-2.23 -0.828,-3.51 0.687,-1.15 1.195,-2.85 1.445,-4.95 1.07,0.03 1.258,-0.81 1.652,-1.45 1.102,0.14 1.809,-0.12 2.067,-0.83 0.226,-1.12 -0.418,-1.37 -0.414,-2.27 0.976,0.47 1.742,1.15 3.097,1.24 0.915,-0.67 1.516,-1.65 3.512,-1.24 l 1.035,1.24 1.446,-1.24 c 0.683,0.41 -0.34,2.35 1.031,2.48 0.867,0.04 0.641,-1.01 1.652,-0.83 0.227,0.95 0.227,1.33 0,2.28 1.36,0.83 1.66,-1.02 2.481,-0.62 l -1.035,1.65 c 0.941,1.27 -0.305,3.7 1.035,4.75 0.914,0.46 3.894,-0.63 5.16,0.41 -4.149,-1.14 -7.438,2.53 -5.16,5.99 z m 70.84,34.91 c 0.57,-0.74 2.265,-0.42 2.273,0.62 -0.473,1.07 -2.301,0.55 -2.273,-0.62 z m -79.723,16.93 c -1.176,0.27 -2.145,0.75 -3.305,1.04 0.051,-1.26 2.485,-1.23 3.305,-1.04 z m 76.625,22.52 v 1.44 c -1.145,0 -1.734,1.11 -2.891,1.45 -1.113,0.33 -2.527,-0.19 -3.304,0.82 -0.371,-0.79 -1.25,-0.99 -2.274,-0.62 -0.277,-1.71 -2.39,-1.6 -2.269,-3.71 l -0.828,-0.21 0.414,-1.03 -1.032,-1.24 c 1.227,-0.43 1.282,-2.03 1.653,-3.31 1.242,-0.47 1.582,-1.85 2.89,-2.27 -1.652,-0.62 -3.043,-1.5 -3.097,-3.72 4.476,-2.22 4.746,5.32 9.5,4.13 0.945,2.17 3.214,4.08 1.859,6.82 l 1.031,1.24 z m -18.586,8.05 c 1.926,-0.59 3.613,0.77 3.715,2.69 -1.66,0.33 -3.559,-0.65 -3.922,-2.28 z m -35.113,-5.99 c 0.875,-0.25 1.761,-0.29 1.238,-1.44 1.055,0.24 2.078,-0.46 2.891,-1.04 1.504,0.37 2.402,0.07 3.511,-0.41 0.465,1.74 2.184,2.22 3.512,3.1 -0.352,0.99 -0.109,1.83 0.828,2.06 0.281,2.02 -1.234,2.83 -0.414,4.75 -2.082,0.47 -2.711,2.39 -4.34,3.31 l -1.031,-0.83 -1.238,0.83 c -0.278,-0.97 -1.367,-1.24 -2.481,-0.83 -0.633,-1.43 -1.726,-2.4 -3.097,-3.1 1.078,-0.97 -0.09,-2.44 -0.618,-3.09 0.414,-1.37 1.414,-1.66 1.239,-3.31 z m 0.824,11.77 c 0.359,1.71 -2.59,1.48 -1.652,0 0.914,0.1 1.027,-0.28 1.652,0"
           style="fill:#231f20;fill-opacity:1;fill-rule:evenodd;stroke:none"
           id="path54" />
        <g
           id="g56"
           transform="scale(10)">
          <text
             xml:space="preserve"
             transform="matrix(1,0,0,-1,114.818,121.284)"
             style="font-variant:normal;font-weight:300;font-size:12px;font-family:Lato;-inkscape-font-specification:Lato-Light;writing-mode:lr-tb;fill:#231f20;fill-opacity:1;fill-rule:nonzero;stroke:none"
             id="text62"><tspan
               x="0 6.96 14.436 22.302214 33.198212 40.134212 46.206215 53.166214 56.424023 64.3918 73.889839 84.786339 91.13401 98.999237 108.05978"
               y="0"
               sodipodi:role="line"
               id="tspan58">EXAMPLE COMPANY</tspan><tspan
               x="-19.833599 -13.4136 -3.9216001 4.1960883 7.3220701 15.188283 20.906059 24.16387 30.932415 38.900188 48.398232 57.458233 66.956284 77.851784 84.542213 87.800026 95.767784 105.26584 116.16184 122.51046 130.37569 139.43622"
               y="-16.173"
               sodipodi:role="line"
               id="tspan60">SOCIAL ECONOMY COMPANY</tspan></text>
        </g>
        <path
           d="M 1667.29,176.539 H 560.625 v 775.93 H 1667.29 v -775.93"
           style="fill:#edecec;fill-opacity:1;fill-rule:nonzero;stroke:none"
           id="path64" />
        <path
           d="M 2860.63,176.539 H 1753.96 v 775.93 h 1106.67 v -775.93"
           style="fill:#edecec;fill-opacity:1;fill-rule:nonzero;stroke:none"
           id="path66" />
        <g
           id="g68"
           transform="scale(10)">
          <text
             xml:space="preserve"
             transform="matrix(1,0,0,-1,186.71,83.9129)"
             style="font-variant:normal;font-weight:300;font-size:9px;font-family:Lato;-inkscape-font-specification:Lato-Light;writing-mode:lr-tb;fill:#231f20;fill-opacity:1;fill-rule:nonzero;stroke:none"
             id="text78"><tspan
               x="0 5.895 9.7200003 13.550005 18.572004 22.81518 24.817623 29.173622 32.242954 36.936325 40.761326"
               y="0"
               sodipodi:role="line"
               id="tspan70">Associates </tspan><tspan
               x="-0.51015598 4.5523486 11.797349 16.760731 18.749731 23.650612 28.060272 32.754131 37.447498 41.272499"
               y="10.8"
               sodipodi:role="line"
               id="tspan72">Employees </tspan><tspan
               x="7.8117242 13.706724 17.531725 21.361729 26.041428 29.123943 32.948944"
               y="21.6"
               sodipodi:role="line"
               id="tspan74">Assets </tspan><tspan
               x="4.6707039 11.443163 16.13652 21.041784 24.11063 29.132629 32.264465 36.089462"
               y="32.400002"
               sodipodi:role="line"
               id="tspan76">Debtors </tspan></text>
        </g>
        <path
           d="m 4400.055,89.1484 h -1220.67 c -53.62,0 -97.5,43.8826 -97.5,97.4996 V 1456.92 c 0,53.62 43.88,97.5 97.5,97.5 h 1220.67 c 53.62,0 97.5,-43.88 97.5,-97.5 V 186.648 c 0,-53.617 -43.88,-97.4996 -97.5,-97.4996"
           style="fill:#f8f8fa;fill-opacity:1;fill-rule:nonzero;stroke:none"
           id="path80" />
        <g
           id="g82"
           transform="scale(10)">
          <text
             xml:space="preserve"
             transform="matrix(1,0,0,-1,254.983,83.9129)"
             style="font-variant:normal;font-weight:300;font-size:9px;font-family:Lato;-inkscape-font-specification:Lato-Light;writing-mode:lr-tb;fill:#231f20;fill-opacity:1;fill-rule:nonzero;stroke:none"
             id="text110"><tspan
               x="0 5.2199998 10.44"
               y="0"
               sodipodi:role="line"
               id="tspan84">528</tspan><tspan
               x="5.2199202"
               y="10.8"
               id="tspan86">6</tspan><tspan
               x="-7.9183798 -2.69838 2.52162 7.7416201 12.96162 15.405478"
               y="21.6"
               sodipodi:role="line"
               id="tspan88">4876 M</tspan><tspan
               x="-7.9183798 -2.69838 2.52162 7.7416201 12.96162 15.405478"
               y="32.400002"
               sodipodi:role="line"
               id="tspan90">3425 M</tspan><tspan
               x="-155.39238 -150.17238 -146.84238 -141.62238 -136.40237 -131.18237 -41.67009 -36.450089 -33.12009 -27.900089 -22.68009 -17.460091"
               y="-21.1113"
               sodipodi:role="line"
               id="tspan92">1-20162-2016</tspan><tspan
               x="-184.91118 -179.01617 -175.19118 -171.36197 -166.33997 -162.0968 -160.09436 -155.73836 -152.66902 -147.97566 -144.15067"
               y="3.3188"
               sodipodi:role="line"
               id="tspan94">Associates </tspan><tspan
               x="-185.42212 -180.35962 -173.11462 -168.15123 -166.16223 -161.26135 -156.85168 -152.15784 -147.46448 -143.63948"
               y="14.1188"
               sodipodi:role="line"
               id="tspan96">Employees </tspan><tspan
               x="-177.09908 -171.20407 -167.37907 -163.54985 -158.87016 -155.78764 -151.96265"
               y="24.9188"
               sodipodi:role="line"
               id="tspan98">Assets </tspan><tspan
               x="-180.24048 -173.46802 -168.77466 -163.8694 -160.80055 -155.77855 -152.64671 -148.8217"
               y="35.7188"
               sodipodi:role="line"
               id="tspan100">Debtors </tspan><tspan
               x="-116.63888 -111.41888 -106.19888"
               y="3.3188"
               sodipodi:role="line"
               id="tspan102">511</tspan><tspan
               x="-111.41896"
               y="14.1188"
               id="tspan104">5</tspan><tspan
               x="-124.55685 -119.33686 -114.11686 -108.89686 -103.67686 -101.233"
               y="24.9188"
               sodipodi:role="line"
               id="tspan106">3855 M</tspan><tspan
               x="-124.55685 -119.33686 -114.11686 -108.89686 -103.67686 -101.233"
               y="35.7188"
               sodipodi:role="line"
               id="tspan108">2757 M</tspan></text>
          <text
             xml:space="preserve"
             transform="scale(1,-1)"
             style="font-variant:normal;font-weight:300;font-size:12px;font-family:Lato;-inkscape-font-specification:Lato-Light;writing-mode:lr-tb;fill:#231f20;fill-opacity:1;fill-rule:nonzero;stroke:none"
             id="text114"
             x="348.72687"
             y="-134.18336"><tspan
               x="348.72687 355.99298 363.85822 371.14221 374.26819 382.13342 389.08142 392.20737 401.70541"
               y="-134.18336"
               sodipodi:role="line"
               id="tspan112">VARIATION</tspan></text>
          <text
             xml:space="preserve"
             transform="scale(1,-1)"
             style="font-variant:normal;font-weight:300;font-size:9px;font-family:Lato;-inkscape-font-specification:Lato-Light;writing-mode:lr-tb;fill:#231f20;fill-opacity:1;fill-rule:nonzero;stroke:none"
             id="text118"
             x="345.21008"
             y="-115.76427"><tspan
               x="345.21008 350.43008 353.76007 358.98007 364.20007 369.42007 374.64008 379.51807 383.87408 388.75208 393.97208 397.30206 402.52206 407.74207 412.96207"
               y="-115.76427"
               sodipodi:role="line"
               id="tspan116">1-2016 a 2-2016</tspan></text>
        </g>
        <path
           d="m 4343.055,176.539 h -1106.67 v 808 h 1106.67 v -808"
           style="fill:#edecec;fill-opacity:1;fill-rule:nonzero;stroke:none"
           id="path120" />
        <path
           d="m 1173.96,410.699 c 0,-16.558 -13.43,-30 -30,-30 -16.57,0 -30,13.442 -30,30 0,16.571 13.43,30 30,30 16.57,0 30,-13.429 30,-30"
           style="fill:#231f20;fill-opacity:1;fill-rule:nonzero;stroke:none"
           id="path210" />
        <path
           d="m 1173.96,332.02 c 0,-16.571 -13.43,-30 -30,-30 -16.57,0 -30,13.429 -30,30 0,16.57 13.43,30 30,30 16.57,0 30,-13.43 30,-30"
           style="fill:#231f20;fill-opacity:1;fill-rule:nonzero;stroke:none"
           id="path212" />
        <path
           d="m 1173.96,253.332 c 0,-16.57 -13.43,-30 -30,-30 -16.57,0 -30,13.43 -30,30 0,16.57 13.43,30 30,30 16.57,0 30,-13.43 30,-30"
           style="fill:#231f20;fill-opacity:1;fill-rule:nonzero;stroke:none"
           id="path214" />
        <path
           d="m 2367.29,413.621 c 0,-16.57 -13.43,-30 -30,-30 -16.57,0 -30,13.43 -30,30 0,16.57 13.43,30 30,30 16.57,0 30,-13.43 30,-30"
           style="fill:#231f20;fill-opacity:1;fill-rule:nonzero;stroke:none"
           id="path216" />
        <path
           d="m 2367.29,333.48 c 0,-16.57 -13.43,-30 -30,-30 -16.57,0 -30,13.43 -30,30 0,16.559 13.43,30 30,30 16.57,0 30,-13.441 30,-30"
           style="fill:#231f20;fill-opacity:1;fill-rule:nonzero;stroke:none"
           id="path218" />
        <path
           d="m 2367.29,253.332 c 0,-16.57 -13.43,-30 -30,-30 -16.57,0 -30,13.43 -30,30 0,16.57 13.43,30 30,30 16.57,0 30,-13.43 30,-30"
           style="fill:#231f20;fill-opacity:1;fill-rule:nonzero;stroke:none"
           id="path220" />
        <path
           d="m 3896.115,413.621 c 0,-16.57 -13.44,-30 -30,-30 -16.57,0 -30,13.43 -30,30 0,16.57 13.43,30 30,30 16.56,0 30,-13.43 30,-30"
           style="fill:#231f20;fill-opacity:1;fill-rule:nonzero;stroke:none"
           id="path222" />
        <path
           d="m 3896.115,333.48 c 0,-16.57 -13.43,-30 -30,-30 -16.57,0 -30,13.43 -30,30 0,16.559 13.43,30 30,30 16.57,0 30,-13.441 30,-30"
           style="fill:#231f20;fill-opacity:1;fill-rule:nonzero;stroke:none"
           id="path224" />
        <path
           d="m 3896.115,253.332 c 0,-16.57 -13.44,-30 -30,-30 -16.57,0 -30,13.43 -30,30 0,16.57 13.43,30 30,30 16.56,0 30,-13.43 30,-30"
           style="fill:#231f20;fill-opacity:1;fill-rule:nonzero;stroke:none"
           id="path226" />
        <path
           id="path2157"
           d="m 4209.6188,520.72174 q -4.3506,0 -6.8115,-3.82324 -2.4609,-3.7793 -2.4609,-10.59082 0,-6.67969 2.4609,-10.50293 2.4609,-3.82324 6.8115,-3.82324 4.2627,0 6.7236,3.82324 2.461,3.82324 2.461,10.50293 0,6.72363 -2.461,10.59082 -2.4609,3.82324 -6.7236,3.82324 z m -0.09,3.47168 q 6.1524,0 9.7559,-4.83398 3.6474,-4.83399 3.6474,-13.05176 0,-8.21777 -3.6474,-13.05176 -3.6475,-4.79004 -9.7559,-4.79004 -6.2402,0 -9.8437,4.79004 -3.6035,4.83399 -3.6035,13.05176 0,8.26172 3.6474,13.05176 3.6035,4.83398 9.7998,4.83398 z m -45.2197,28.87207 q -4.3506,0 -6.8115,-3.82324 -2.461,-3.7793 -2.461,-10.59082 0,-6.67969 2.461,-10.50293 2.4609,-3.82324 6.8115,-3.82324 4.2187,0 6.7236,3.82324 2.461,3.82324 2.461,10.50293 0,6.72363 -2.461,10.59082 -2.5049,3.82324 -6.7236,3.82324 z m 40.6934,3.47168 h 4.5703 l -40.9571,-68.07129 h -4.5703 z m -40.7813,0 q 6.1523,0 9.7559,-4.83398 3.6035,-4.83399 3.6035,-13.05176 0,-8.21777 -3.6035,-13.05176 -3.6475,-4.79004 -9.7559,-4.79004 -6.2402,0 -9.8437,4.79004 -3.6036,4.83399 -3.6036,13.05176 0,8.26172 3.6475,13.05176 3.6035,4.83398 9.7998,4.83398 z m -60.8112,-1.18652 h 31.1572 v -3.55957 h -26.7187 v -22.0166 q 1.9336,0.7031 3.8672,1.09863 1.9336,0.3516 5.6689,0.3516 10.0635,0 15.9522,-5.53711 5.8447,-5.49316 5.8447,-14.89746 0,-10.59082 -6.0204,-16.47949 -6.0206,-5.84473 -17.0069,-5.84473 -3.6474,0 -7.4707,0.6152 -3.7793,0.6152 -7.8663,1.8457 v 4.48242 q 3.4278,-1.62597 7.1192,-2.46093 3.6474,-0.791 7.7345,-0.791 8.7889,0 13.9745,5.00977 5.1855,5.00976 5.1855,13.62304 0,7.77832 -5.0537,12.30469 -5.0976,4.57031 -13.7987,4.57031 -1.8019,0 -5.3174,-0.9668 -3.5597,-0.9229 -7.251,-2.90039 z m -20.4391,-60.07324 h 4.4824 v -5.53711 h -4.4824 z m -52.1561,-4.17481 v 4.65821 q 3.0762,-1.84571 6.1523,-2.8125 3.1202,-0.9668 6.1524,-0.9668 13.0957,0 18.3252,12.87598 2.373,5.84472 2.1972,19.81933 -2.2412,-4.83398 -5.6689,-7.55859 -4.4385,-3.55957 -11.2939,-3.55957 -8.2618,0 -13.7549,5.84472 -5.4492,5.80079 -5.4492,14.80957 0,10.10743 5.3613,16.21583 5.4053,6.10839 13.9746,6.10839 10.415,0 15.9082,-8.70117 5.4492,-8.74512 5.4492,-25.3125 0,-17.66601 -6.6797,-25.83984 -6.7236,-8.21778 -18.0615,-8.21778 -3.0322,0 -6.1523,0.6592 -3.0762,0.6592 -6.46,1.97754 z m 5.3174,30.89356 q 4.0869,-4.79004 11.0742,-4.79004 6.9873,0 11.0742,4.79004 4.0869,4.79004 4.0869,13.0957 0,8.30567 -4.0869,13.0957 -4.0869,4.79004 -11.0742,4.79004 -6.9873,0 -11.0742,-4.79004 -4.0869,-4.79003 -4.0869,-13.0957 0,-8.30566 4.0869,-13.0957 z m -56.243,-28.65235 h 14.5019 v 57.96387 l -17.9736,-7.20703 v 4.04297 l 17.8858,7.20703 h 4.4824 v -62.00684 h 14.5019 v -3.60351 h -33.3984 z m 241.9485,135.37793 q -4.3505,0 -6.8115,-3.82325 -2.4609,-3.77929 -2.4609,-10.59082 0,-6.67968 2.4609,-10.50293 2.461,-3.82324 6.8115,-3.82324 4.2627,0 6.7237,3.82324 2.4609,3.82325 2.4609,10.50293 0,6.72364 -2.4609,10.59082 -2.461,3.82325 -6.7237,3.82325 z m -0.09,3.47168 q 6.1523,0 9.7558,-4.83399 3.6475,-4.83398 3.6475,-13.05176 0,-8.21777 -3.6475,-13.05175 -3.6474,-4.79004 -9.7558,-4.79004 -6.2403,0 -9.8438,4.79004 -3.6035,4.83398 -3.6035,13.05175 0,8.26172 3.6474,13.05176 3.6036,4.83399 9.7999,4.83399 z m -45.2198,28.87207 q -4.3506,0 -6.8115,-3.82325 -2.4609,-3.77929 -2.4609,-10.59082 0,-6.67968 2.4609,-10.50293 2.4609,-3.82324 6.8115,-3.82324 4.2188,0 6.7237,3.82324 2.4609,3.82325 2.4609,10.50293 0,6.72364 -2.4609,10.59082 -2.5049,3.82325 -6.7237,3.82325 z m 40.6934,3.47168 h 4.5703 l -40.9569,-68.07129 h -4.5703 z m -40.7813,0 q 6.1524,0 9.7559,-4.83399 3.6036,-4.83398 3.6036,-13.05176 0,-8.21777 -3.6036,-13.05175 -3.6475,-4.79004 -9.7559,-4.79004 -6.2402,0 -9.8437,4.79004 -3.6035,4.83398 -3.6035,13.05175 0,8.26172 3.6474,13.05176 3.6035,4.83399 9.7998,4.83399 z m -60.1958,-65.43457 v 4.6582 q 3.0761,-1.8457 6.1523,-2.8125 3.1201,-0.9668 6.1524,-0.9668 13.0957,0 18.3252,12.87598 2.373,5.84473 2.1972,19.81933 -2.2412,-4.83398 -5.6689,-7.55859 -4.4385,-3.55957 -11.294,-3.55957 -8.2616,0 -13.7548,5.84473 -5.4493,5.80078 -5.4493,14.80957 0,10.10742 5.3614,16.21582 5.4052,6.1084 13.9746,6.1084 10.415,0 15.9082,-8.70118 5.4492,-8.74511 5.4492,-25.3125 0,-17.66601 -6.6797,-25.83984 -6.7236,-8.21777 -18.0615,-8.21777 -3.0322,0 -6.1524,0.6592 -3.0761,0.6592 -6.4599,1.97754 z m 5.3174,30.89355 q 4.0869,-4.79004 11.0742,-4.79004 6.9873,0 11.0742,4.79004 4.0869,4.79004 4.0869,13.0957 0,8.30567 -4.0869,13.09571 -4.0869,4.79004 -11.0742,4.79004 -6.9873,0 -11.0742,-4.79004 -4.087,-4.79004 -4.087,-13.09571 0,-8.30566 4.087,-13.0957 z m -26.3721,-26.71875 h 4.4824 v -5.53711 h -4.4824 z m -35.8963,57.65625 q -8.042,0 -11.9531,-7.82227 -3.9112,-7.86621 -3.9112,-22.63183 0,-14.76563 3.9112,-22.63184 3.9111,-7.82226 11.9531,-7.82226 8.3057,0 12.2168,7.82226 3.9111,7.86621 3.9111,22.63184 0,14.76562 -3.9111,22.63183 -3.9111,7.82227 -12.2168,7.82227 z m 0,3.60352 q 9.4922,0 15.0293,-7.73438 5.5371,-7.77832 5.5371,-26.32324 0,-18.54492 -5.5371,-26.32324 -5.5371,-7.73438 -15.0293,-7.73438 -9.2285,0 -14.7656,7.73438 -5.5371,7.77832 -5.5371,26.32324 0,18.54492 5.5371,26.32324 5.5371,7.73438 14.7656,7.73438 z m -69.7342,-63.23731 h 37.4414 v -3.55957 h -42.0116 v 4.61426 l 16.3475,17.00683 q 6.0645,6.15235 10.9864,11.38184 4.5703,4.87793 6.1084,7.55859 1.5381,2.68067 1.5381,7.0752 0,7.60254 -4.6583,12.2168 -3.3836,3.33984 -10.8984,3.33984 -4.3944,0 -10.1074,-2.54883 -2.5049,-1.14258 -8.5254,-5.05371 v 4.6582 q 2.5488,1.80176 7.4707,3.99903 5.5811,2.50488 11.0743,2.54883 8.4814,0 14.1943,-4.35059 5.581,-4.35059 5.581,-14.37012 0,-4.04297 -1.4941,-7.64648 -1.7578,-4.21875 -5.5371,-8.56934 -1.0987,-1.27441 -6.9872,-7.33886 z m 195.6659,135.42187 q -4.3506,0 -6.8115,-3.82324 -2.4609,-3.7793 -2.4609,-10.59082 0,-6.67969 2.4609,-10.50293 2.4609,-3.82325 6.8115,-3.82325 4.2627,0 6.7236,3.82325 2.461,3.82324 2.461,10.50293 0,6.72363 -2.461,10.59082 -2.4609,3.82324 -6.7236,3.82324 z m -0.09,3.47168 q 6.1523,0 9.7559,-4.83399 3.6474,-4.83398 3.6474,-13.05175 0,-8.21778 -3.6474,-13.05176 -3.6475,-4.79004 -9.7559,-4.79004 -6.2402,0 -9.8438,4.79004 -3.6035,4.83398 -3.6035,13.05176 0,8.26171 3.6475,13.05175 3.6035,4.83399 9.7998,4.83399 z m -45.2197,28.87207 q -4.3506,0 -6.8116,-3.82324 -2.4609,-3.7793 -2.4609,-10.59082 0,-6.67969 2.4609,-10.50293 2.461,-3.82325 6.8116,-3.82325 4.2187,0 6.7236,3.82325 2.4609,3.82324 2.4609,10.50293 0,6.72363 -2.4609,10.59082 -2.5049,3.82324 -6.7236,3.82324 z m 40.6933,3.47168 h 4.5703 l -40.957,-68.07129 h -4.5703 z m -40.7812,0 q 6.1523,0 9.7558,-4.83399 3.6036,-4.83398 3.6036,-13.05175 0,-8.21778 -3.6036,-13.05176 -3.6474,-4.79004 -9.7558,-4.79004 -6.2403,0 -9.8438,4.79004 -3.6035,4.83398 -3.6035,13.05176 0,8.26171 3.6475,13.05175 3.6035,4.83399 9.7998,4.83399 z m -43.9362,-3.60352 q -8.042,0 -11.9531,-7.82226 -3.9112,-7.86621 -3.9112,-22.63184 0,-14.76562 3.9112,-22.63183 3.9111,-7.82227 11.9531,-7.82227 8.3057,0 12.2168,7.82227 3.9111,7.86621 3.9111,22.63183 0,14.76563 -3.9111,22.63184 -3.9111,7.82226 -12.2168,7.82226 z m 0,3.60352 q 9.4922,0 15.0293,-7.73438 5.5371,-7.77832 5.5371,-26.32324 0,-18.54492 -5.5371,-26.32324 -5.5371,-7.73438 -15.0293,-7.73438 -9.2285,0 -14.7656,7.73438 -5.5371,7.77832 -5.5371,26.32324 0,18.54492 5.5371,26.32324 5.5371,7.73438 14.7656,7.73438 z m -69.7342,-63.23731 h 37.4414 v -3.55957 h -42.0117 v 4.61426 l 16.3476,17.00684 q 6.0645,6.15234 10.9864,11.38183 4.5703,4.87793 6.1084,7.5586 1.5381,2.68066 1.5381,7.07519 0,7.60254 -4.6582,12.2168 -3.3838,3.33984 -10.8985,3.33984 -4.3945,0 -10.1073,-2.54883 -2.5049,-1.14257 -8.5254,-5.05371 v 4.65821 q 2.5488,1.80175 7.4706,3.99902 5.5811,2.50488 11.0742,2.54883 8.4815,0 14.1944,-4.35059 5.581,-4.35058 5.581,-14.37011 0,-4.04297 -1.4941,-7.64649 -1.7577,-4.21875 -5.5371,-8.56934 -1.0987,-1.27441 -6.9872,-7.33886 z m 169.5419,135.42191 q -4.3506,0 -6.8115,-3.82324 -2.4609,-3.7793 -2.4609,-10.59082 0,-6.67969 2.4609,-10.50293 2.4609,-3.82325 6.8115,-3.82325 4.2627,0 6.7237,3.82325 2.4609,3.82324 2.4609,10.50293 0,6.72363 -2.4609,10.59082 -2.461,3.82324 -6.7237,3.82324 z m -0.09,3.47168 q 6.1524,0 9.7559,-4.83399 3.6475,-4.83398 3.6475,-13.05175 0,-8.21778 -3.6475,-13.05176 -3.6475,-4.79004 -9.7559,-4.79004 -6.2402,0 -9.8437,4.79004 -3.6035,4.83398 -3.6035,13.05176 0,8.26172 3.6474,13.05175 3.6035,4.83399 9.7998,4.83399 z m -45.2197,28.87207 q -4.3506,0 -6.8115,-3.82324 -2.461,-3.7793 -2.461,-10.59082 0,-6.67969 2.461,-10.50293 2.4609,-3.82325 6.8115,-3.82325 4.2188,0 6.7236,3.82325 2.461,3.82324 2.461,10.50293 0,6.72363 -2.461,10.59082 -2.5048,3.82324 -6.7236,3.82324 z m 40.6934,3.47168 h 4.5703 l -40.957,-68.07129 h -4.5704 z m -40.7813,0 q 6.1524,0 9.7559,-4.83399 3.6035,-4.83398 3.6035,-13.05175 0,-8.21778 -3.6035,-13.05176 -3.6475,-4.79004 -9.7559,-4.79004 -6.2402,0 -9.8437,4.79004 -3.6035,4.83398 -3.6035,13.05176 0,8.26172 3.6474,13.05175 3.6035,4.83399 9.7998,4.83399 z m -61.4704,-63.23731 h 37.4415 v -3.55957 h -42.0118 v 4.61426 l 16.3477,17.00684 q 6.0644,6.15234 10.9863,11.38183 4.5703,4.87793 6.1084,7.5586 1.5381,2.68066 1.5381,7.07519 0,7.60254 -4.6582,12.2168 -3.3838,3.33984 -10.8984,3.33984 -4.3946,0 -10.1075,-2.54882 -2.5048,-1.14258 -8.5253,-5.05372 v 4.65821 q 2.5488,1.80176 7.4707,3.99902 5.581,2.50488 11.0742,2.54883 8.4814,0 14.1943,-4.35059 5.5811,-4.35058 5.5811,-14.37011 0,-4.04297 -1.4942,-7.64649 -1.7578,-4.21875 -5.5371,-8.56933 -1.0986,-1.27442 -6.9873,-7.33887 z m -19.7396,1.97754 h 4.4824 v -5.53711 h -4.4824 z m -27.7225,29.83887 q 5.2734,-1.27441 8.3057,-5.66894 2.9882,-4.30665 2.9882,-10.63477 0,-9.71191 -5.581,-15.0293 -5.5811,-5.31738 -17.8418,-5.31738 -4.1309,0 -8.4815,1.27441 -4.3945,1.31836 -9.0527,4.04297 v 4.79004 q 3.6914,-3.20801 8.0859,-4.87793 4.3946,-1.62597 8.9649,-1.62597 9.4922,0 14.5019,4.30664 4.9659,4.26269 4.9659,12.43652 0,6.67969 -4.6143,10.41504 -4.6582,3.7793 -12.9199,3.7793 h -7.6465 v 3.6914 h 7.998 q 7.6026,0 11.6016,3.03223 4.043,3.07617 4.043,8.87695 0,6.85547 -4.1309,10.54688 -4.1748,3.6914 -11.9092,3.6914 -3.6035,0 -7.7783,-1.27441 -4.1748,-1.27442 -9.1846,-3.95508 v 4.57031 q 5.0538,2.15332 9.4483,3.16407 4.4385,1.09863 8.3496,1.18652 10.0635,0 14.8535,-4.57031 4.834,-4.61426 4.834,-12.43653 0,-5.22949 -2.5488,-9.18457 -2.461,-3.82324 -7.251,-5.22949 z M 3702.3139,537.50885 v -4.43847 q -4.2628,2.37304 -5.3174,2.63672 -3.0762,0.7471 -7.6464,0.8789 -6.9434,0 -10.8985,-2.76855 -3.0322,-2.28516 -3.0322,-7.82227 0,-3.73535 2.8564,-5.84473 3.0323,-2.28515 8.6573,-3.51562 l 2.7685,-0.6152 q 6.9873,-1.53809 10.5908,-4.35059 4.1748,-3.20801 4.3946,-8.34961 0,-6.9873 -4.1309,-10.94238 -4.3945,-3.91114 -14.1504,-3.91114 -5.4492,0 -8.2617,0.7471 -3.3838,0.9668 -7.1191,2.32911 v 5.05371 q 5.3613,-3.07617 6.9433,-3.51563 4.3506,-1.14258 8.6133,-1.14258 7.1191,0 10.5029,2.94434 3.4278,2.98828 3.4278,7.82227 0,4.04296 -2.2852,5.88867 -3.2959,2.63672 -10.5029,4.30664 l -2.8125,0.6592 q -6.1963,1.45019 -9.4483,4.08691 -4.0869,3.2959 -4.0869,7.99805 0,7.73437 4.9219,11.11816 4.9219,3.38379 12.085,3.38379 6.1084,0 8.4375,-0.6592 2.8125,-0.791 5.4931,-1.97754 z m -32.4609,-2.02148 q -0.9671,0.4834 -2.6367,0.835 -1.4943,0.2637 -3.7794,0.2637 -7.4706,0 -12.3926,-5.53711 -3.8672,-4.48242 -3.8672,-15.38086 v -25.92773 h -3.9551 v 49.21875 h 3.9551 v -9.22852 q 1.9775,3.95508 5.5371,6.67969 4.9219,3.73535 11.6016,3.73535 1.7138,0 2.9883,-0.1318 1.3183,0 2.5488,-0.3076 z m -47.6713,-4.96582 q -4.3506,6.06445 -11.8653,6.06445 -7.5146,0 -11.8652,-6.02051 -4.3945,-5.97656 -4.3945,-16.17187 0,-10.45899 4.3507,-16.43555 4.3505,-6.02051 11.909,-6.02051 7.5148,0 11.8653,6.02051 4.3945,6.06446 4.3945,16.43555 0,10.06348 -4.3945,16.12793 z m -11.9092,9.62402 q 9.4043,0 14.8535,-7.03125 5.4932,-7.07519 5.4932,-18.76465 0,-12.08496 -5.4932,-19.07226 -5.4492,-7.03125 -14.8535,-7.03125 -9.4922,0 -14.9854,6.9873 -5.4492,6.98731 -5.4492,19.11621 0,11.82129 5.4932,18.8086 5.4932,6.9873 14.9414,6.9873 z m -43.7842,12.78809 v -13.97461 h 16.6553 v -3.42774 h -16.6553 v -29.57519 q 0,-5.625 1.4502,-7.86621 2.9883,-4.92188 8.7012,-4.92188 h 6.504 v -3.42773 h -6.2842 q -6.0206,0 -10.2392,3.51562 -4.2189,3.51563 -4.2189,12.7002 v 29.57519 h -5.8887 v 3.42774 h 5.8887 v 13.97461 z m -22.9053,-55.7666 q 5.0977,5.1416 5.0977,17.13867 0,11.99707 -5.0977,17.13867 -5.0537,5.1416 -10.6787,5.1416 -5.4931,0 -10.5908,-5.1416 -5.0536,-5.1416 -5.0536,-17.13867 0,-11.99707 5.0536,-17.13867 5.0977,-5.14161 10.5908,-5.14161 5.625,0 10.6787,5.14161 z m -26.3671,30.54199 q 2.7686,6.41601 6.0205,8.78906 4.9658,3.64746 9.3603,3.64746 8.7451,0 14.5459,-7.11914 5.8008,-7.11914 5.8008,-18.7207 0,-11.60156 -5.8008,-18.7207 -5.8008,-7.11915 -14.5459,-7.11915 -4.3945,0 -9.3603,3.64747 -3.2519,2.37304 -6.0205,8.78906 V 489.7403 h -3.9551 v 68.3789 h 3.9551 z m -12.6122,-11.33789 v -2.54883 h -37.3536 q 0,-11.86523 4.6143,-16.61133 5.0977,-5.27344 15.1611,-5.27344 2.6367,0 6.9872,1.14258 4.3947,1.14258 8.7012,3.42774 v -4.2627 q -4.3506,-1.8457 -8.9209,-2.8125 -4.5702,-0.9668 -7.251,-0.9668 -11.3818,0 -17.1386,6.15235 -6.2403,6.54785 -6.2403,19.2041 0,13.13965 5.7129,19.59961 5.8447,6.72363 16.2598,6.72363 9.6679,0 14.5898,-6.37207 4.878,-6.67969 4.8781,-17.40234 z m -4.087,0.8789 q 0,10.3711 -4.6582,15.11719 -3.9111,4.21875 -10.6347,4.21875 -7.3389,0 -12.3047,-4.39453 -4.5703,-4.08691 -5.4932,-14.94141 z m -96.7727,34.36524 v -58.31543 h 13.0078 q 14.8535,0 21.7528,7.03125 6.9435,7.03125 6.9435,22.19238 0,15.07324 -6.9435,22.10449 -6.8993,6.98731 -21.7528,6.98731 z m -4.4824,3.73535 h 16.1279 q 17.9297,0 26.3232,-7.9541 8.3935,-7.91016 8.3935,-24.78516 0,-16.96289 -8.4375,-24.91699 -8.4375,-7.9541 -26.2793,-7.9541 h -16.1279 z m 271.6351,90.1582 v -4.43848 q -4.2627,2.37305 -5.3174,2.63672 -3.0762,0.7471 -7.6465,0.8789 -6.9433,0 -10.8984,-2.76855 -3.0322,-2.28516 -3.0322,-7.82227 0,-3.73535 2.8564,-5.84472 3.0322,-2.28516 8.6572,-3.51563 l 2.7686,-0.6152 q 6.9873,-1.53809 10.5908,-4.35059 4.1748,-3.20801 4.3945,-8.34961 0,-6.9873 -4.1308,-10.94238 -4.3946,-3.91113 -14.1504,-3.91113 -5.4492,0 -8.2617,0.7471 -3.3838,0.9668 -7.1192,2.3291 v 5.05371 q 5.3613,-3.07617 6.9434,-3.51563 4.3506,-1.14257 8.6133,-1.14257 7.1191,0 10.5029,2.94433 3.4277,2.98828 3.4277,7.82227 0,4.04297 -2.2851,5.88867 -3.2959,2.63672 -10.503,4.30664 l -2.8125,0.6592 q -6.1963,1.4502 -9.4482,4.08691 -4.0869,3.2959 -4.0869,7.99805 0,7.73438 4.9219,11.11817 4.9218,3.38378 12.0849,3.38378 6.1084,0 8.4375,-0.6592 2.8125,-0.791 5.4932,-1.97753 z m -54.4238,15.4248 v -13.97461 h 16.6552 v -3.42773 h -16.6552 v -29.5752 q 0,-5.625 1.4501,-7.86621 2.9883,-4.92187 8.7012,-4.92187 h 6.5039 v -3.42774 h -6.2842 q -6.0205,0 -10.2392,3.51563 -4.2188,3.51562 -4.2188,12.70019 v 29.5752 h -5.8887 v 3.42773 h 5.8887 v 13.97461 z m -12.6958,-36.5625 v -2.54883 h -37.3535 q 0,-11.86523 4.6144,-16.61133 5.0976,-5.27343 15.161,-5.27343 2.6367,0 6.9873,1.14257 4.3945,1.14258 8.7012,3.42774 v -4.2627 q -4.3506,-1.8457 -8.9209,-2.8125 -4.5703,-0.9668 -7.251,-0.9668 -11.3818,0 -17.1387,6.15234 -6.2402,6.54785 -6.2402,19.2041 0,13.13965 5.7129,19.59961 5.8447,6.72363 16.2598,6.72363 9.6679,0 14.5898,-6.37207 4.8779,-6.67968 4.8779,-17.40234 z m -4.0868,0.8789 q 0,10.37109 -4.6582,15.11718 -3.9111,4.21875 -10.6347,4.21875 -7.3389,0 -12.3047,-4.39453 -4.5703,-4.08691 -5.4932,-14.9414 z m -44.7043,20.2588 v -4.43848 q -4.2627,2.37305 -5.3173,2.63672 -3.0762,0.7471 -7.6465,0.8789 -6.9434,0 -10.8985,-2.76855 -3.0322,-2.28516 -3.0322,-7.82227 0,-3.73535 2.8565,-5.84472 3.0322,-2.28516 8.6572,-3.51563 l 2.7685,-0.6152 q 6.9873,-1.53809 10.5909,-4.35059 4.1748,-3.20801 4.3945,-8.34961 0,-6.9873 -4.1309,-10.94238 -4.3945,-3.91113 -14.1504,-3.91113 -5.4492,0 -8.2617,0.7471 -3.3838,0.9668 -7.1191,2.3291 v 5.05371 q 5.3613,-3.07617 6.9433,-3.51563 4.3506,-1.14257 8.6133,-1.14257 7.1192,0 10.5029,2.94433 3.4278,2.98828 3.4278,7.82227 0,4.04297 -2.2852,5.88867 -3.2959,2.63672 -10.5029,4.30664 l -2.8125,0.6592 q -6.1963,1.4502 -9.4482,4.08691 -4.087,3.2959 -4.087,7.99805 0,7.73438 4.9219,11.11817 4.9219,3.38378 12.085,3.38378 6.1084,0 8.4375,-0.6592 2.8125,-0.791 5.4931,-1.97753 z m -38.2498,0 v -4.43848 q -4.2627,2.37305 -5.3174,2.63672 -3.0761,0.7471 -7.6464,0.8789 -6.9434,0 -10.8985,-2.76855 -3.0322,-2.28516 -3.0322,-7.82227 0,-3.73535 2.8564,-5.84472 3.0323,-2.28516 8.6573,-3.51563 l 2.7685,-0.6152 q 6.9873,-1.53809 10.5908,-4.35059 4.1748,-3.20801 4.3946,-8.34961 0,-6.9873 -4.1309,-10.94238 -4.3945,-3.91113 -14.1504,-3.91113 -5.4492,0 -8.2617,0.7471 -3.3838,0.9668 -7.1191,2.3291 v 5.05371 q 5.3613,-3.07617 6.9433,-3.51563 4.3506,-1.14257 8.6133,-1.14257 7.1191,0 10.5029,2.94433 3.4278,2.98828 3.4278,7.82227 0,4.04297 -2.2852,5.88867 -3.2959,2.63672 -10.5029,4.30664 l -2.8125,0.6592 q -6.1963,1.4502 -9.4483,4.08691 -4.0869,3.2959 -4.0869,7.99805 0,7.73438 4.9219,11.11817 4.9219,3.38378 12.085,3.38378 6.1084,0 8.4375,-0.6592 2.8125,-0.791 5.4931,-1.97753 z m -66.4648,13.40332 -14.0625,-36.91407 h 27.9052 z m -2.8125,4.43847 h 5.7568 l 25.0928,-65.61035 h -5.0098 l -7.8222,20.61035 h -30.6299 l -7.7783,-20.61035 h -4.6583 z m 306.6733,90.1582 v -4.43848 q -4.2628,2.37305 -5.3174,2.63672 -3.0762,0.7471 -7.6465,0.8789 -6.9434,0 -10.8984,-2.76856 -3.0323,-2.28515 -3.0323,-7.82226 0,-3.73536 2.8565,-5.84473 3.0322,-2.28516 8.6572,-3.51563 l 2.7686,-0.6152 q 6.9873,-1.53809 10.5908,-4.35059 4.1747,-3.208 4.3945,-8.34961 0,-6.9873 -4.131,-10.94238 -4.3944,-3.91113 -14.1502,-3.91113 -5.4494,0 -8.2619,0.7471 -3.3838,0.9668 -7.119,2.3291 v 5.05371 q 5.3613,-3.07617 6.9434,-3.51562 4.3505,-1.14258 8.6131,-1.14258 7.1193,0 10.5031,2.94433 3.4277,2.98829 3.4277,7.82227 0,4.04297 -2.2852,5.88867 -3.2959,2.63672 -10.5029,4.30664 l -2.8125,0.6592 q -6.1963,1.4502 -9.4482,4.08692 -4.0869,3.2959 -4.0869,7.99804 0,7.73438 4.9218,11.11817 4.9219,3.38379 12.085,3.38379 6.1084,0 8.4375,-0.6592 2.8125,-0.791 5.4932,-1.97754 z m -36.4311,-21.1377 v -2.54883 h -37.3535 q 0,-11.86523 4.6142,-16.61132 5.0977,-5.27344 15.1612,-5.27344 2.6367,0 6.9873,1.14258 4.3945,1.14258 8.7011,3.42773 v -4.26269 q -4.3505,-1.84571 -8.9209,-2.8125 -4.5703,-0.9668 -7.2509,-0.9668 -11.3819,0 -17.1387,6.15234 -6.2402,6.54785 -6.2402,19.2041 0,13.13965 5.7128,19.59961 5.8448,6.72364 16.2598,6.72364 9.668,0 14.5899,-6.37207 4.8779,-6.67969 4.8779,-17.40235 z m -4.0868,0.8789 q 0,10.37109 -4.6582,15.11719 -3.9112,4.21875 -10.6348,4.21875 -7.3389,0 -12.3047,-4.39453 -4.5703,-4.08692 -5.4931,-14.94141 z m -42.8516,-0.8789 v -2.54883 h -37.3535 q 0,-11.86523 4.6143,-16.61132 5.0976,-5.27344 15.1611,-5.27344 2.6367,0 6.9872,1.14258 4.3945,1.14258 8.7012,3.42773 v -4.26269 q -4.3506,-1.84571 -8.9209,-2.8125 -4.5703,-0.9668 -7.251,-0.9668 -11.3818,0 -17.1387,6.15234 -6.2402,6.54785 -6.2402,19.2041 0,13.13965 5.7129,19.59961 5.8447,6.72364 16.2597,6.72364 9.668,0 14.5899,-6.37207 4.8779,-6.67969 4.878,-17.40235 z m -4.0869,0.8789 q 0,10.37109 -4.6582,15.11719 -3.9111,4.21875 -10.6348,4.21875 -7.3388,0 -12.3047,-4.39453 -4.5703,-4.08692 -5.4931,-14.94141 z m -61.7627,-32.08007 q -2.6367,-6.54785 -5.6689,-9.05273 -4.087,-3.38379 -7.9981,-3.38379 h -6.0205 v 3.42773 h 5.1416 q 3.208,0 5.625,2.06543 3.1201,2.68067 5.1416,7.86621 l 1.4502,3.64746 -19.6436,49.21875 h 4.3067 l 17.4902,-43.85742 17.5342,43.85742 h 4.2627 z m -36.3525,45.35156 q -4.3506,6.06446 -11.8653,6.06446 -7.5146,0 -11.8652,-6.02051 -4.3945,-5.97656 -4.3945,-16.17188 0,-10.45898 4.3505,-16.43554 4.3506,-6.02051 11.9092,-6.02051 7.5147,0 11.8653,6.02051 4.3945,6.06445 4.3945,16.43554 0,10.06348 -4.3945,16.12793 z m -11.9092,9.62403 q 9.4043,0 14.8535,-7.03125 5.4932,-7.0752 5.4932,-18.76465 0,-12.08496 -5.4932,-19.07227 -5.4492,-7.03125 -14.8535,-7.03125 -9.4922,0 -14.9854,6.98731 -5.4492,6.9873 -5.4492,19.11621 0,11.82129 5.4932,18.80859 5.4931,6.98731 14.9414,6.98731 z m -37.2482,17.97363 h 4.0429 v -68.37891 h -4.0429 z m -45.5909,-57.2168 v -29.88281 h -3.955 v 67.93945 h 3.955 v -11.25 q 2.7685,6.41602 6.0205,8.78907 4.9659,3.64746 9.3604,3.64746 8.7451,0 14.5459,-7.11914 5.8008,-7.11914 5.8008,-18.72071 0,-11.60156 -5.8008,-18.7207 -5.8008,-7.11914 -14.5459,-7.11914 -4.3945,0 -9.3604,3.64746 -3.252,2.37305 -6.0205,8.78906 z m 26.3672,-3.73535 q 5.0976,5.1416 5.0976,17.13867 0,11.99707 -5.0976,17.13867 -5.0537,5.14161 -10.6787,5.14161 -5.4932,0 -10.5908,-5.14161 -5.0537,-5.1416 -5.0537,-17.13867 0,-11.99707 5.0537,-17.13867 5.0976,-5.1416 10.5908,-5.1416 5.625,0 10.6787,5.1416 z m -67.4402,31.06934 q 2.2851,5.93261 7.2071,8.96484 4.6582,2.94434 11.0742,2.94434 6.416,0 10.2832,-4.52637 3.911,-4.48242 3.911,-16.17188 v -29.70703 h -3.9989 v 29.44336 q 0,10.19532 -2.8125,13.79883 -2.8125,3.60352 -7.4707,3.60352 -6.7676,0 -11.9531,-4.17481 -5.669,-4.52637 -5.669,-14.85351 v -27.81739 h -4.0429 v 29.44336 q 0,9.84375 -2.7247,13.62305 -2.7246,3.7793 -7.5585,3.7793 -6.7677,0 -11.9532,-4.21875 -5.669,-4.52637 -5.669,-14.80957 v -27.81739 h -4.043 v 49.21875 h 4.043 v -9.22851 q 2.1533,4.83398 6.6798,7.64648 4.5702,2.76856 11.206,2.76856 4.3067,0 8.3057,-2.90039 3.0762,-2.24121 5.1855,-9.00879 z m -85.2978,27.11425 h 37.0898 v -3.64746 h -32.6074 v -25.18066 h 31.2451 v -3.55957 h -31.2451 v -29.66309 h 33.3984 v -3.55957 h -37.8808 z m 401.575,90.15824 v -4.43848 q -4.2628,2.37305 -5.3174,2.63672 -3.0762,0.7471 -7.6465,0.8789 -6.9433,0 -10.8984,-2.76856 -3.0322,-2.28515 -3.0322,-7.82226 0,-3.73535 2.8564,-5.84473 3.0322,-2.28516 8.6572,-3.51562 l 2.7686,-0.6152 q 6.9873,-1.53809 10.5908,-4.35059 4.1748,-3.208 4.3945,-8.3496 0,-6.98731 -4.1308,-10.94239 -4.3945,-3.91113 -14.1504,-3.91113 -5.4492,0 -8.2617,0.7471 -3.3838,0.9668 -7.1192,2.3291 v 5.05371 q 5.3613,-3.07617 6.9434,-3.51562 4.3506,-1.14258 8.6133,-1.14258 7.1191,0 10.5029,2.94434 3.4277,2.98828 3.4277,7.82226 0,4.04297 -2.2851,5.88867 -3.2959,2.63672 -10.5029,4.30664 l -2.8125,0.6592 q -6.1963,1.4502 -9.4483,4.08692 -4.0869,3.2959 -4.0869,7.99804 0,7.73438 4.9219,11.11817 4.9218,3.38379 12.0849,3.38379 6.1084,0 8.4375,-0.6592 2.8125,-0.791 5.4932,-1.97754 z m -36.4307,-21.1377 v -2.54882 h -37.3535 q 0,-11.86524 4.6143,-16.61133 5.0976,-5.27344 15.1611,-5.27344 2.6367,0 6.9872,1.14258 4.3945,1.14258 8.7012,3.42773 v -4.26269 q -4.3506,-1.84571 -8.9209,-2.8125 -4.5703,-0.9668 -7.251,-0.9668 -11.3818,0 -17.1387,6.15234 -6.2402,6.54786 -6.2402,19.20411 0,13.13964 5.7129,19.5996 5.8447,6.72364 16.2598,6.72364 9.6679,0 14.5898,-6.37207 4.8779,-6.67969 4.878,-17.40235 z m -4.0869,0.8789 q 0,10.37109 -4.6582,15.11719 -3.9111,4.21875 -10.6348,4.21875 -7.3388,0 -12.3046,-4.39453 -4.5704,-4.08692 -5.4932,-14.94141 z m -60.708,35.6836 v -13.97461 h 16.6553 v -3.42773 h -16.6553 v -29.5752 q 0,-5.625 1.4502,-7.86621 2.9883,-4.92187 8.7012,-4.92187 h 6.5039 v -3.42774 h -6.2842 q -6.0205,0 -10.2393,3.51563 -4.2187,3.51562 -4.2187,12.70019 v 29.5752 h -5.8887 v 3.42773 h 5.8887 v 13.97461 z m -28.1351,-35.41992 q -9.7558,0 -14.0625,-3.47168 -4.3066,-3.47168 -4.3066,-10.15137 0,-6.5039 3.5596,-9.22851 3.5595,-2.72461 8.4375,-2.72461 9.2285,0 13.2715,7.82227 4.0869,7.82226 4.0869,14.72167 v 3.03223 z m 15.0733,0.3076 v -28.08106 h -3.999 v 13.35938 q -3.3838,-9.79981 -8.9649,-12.48047 -4.4385,-2.15332 -8.833,-2.15332 -7.3389,0 -11.5576,3.91113 -4.2188,3.95508 -4.2188,11.60157 0,7.64648 5.4932,12.21679 5.4932,4.61426 17.9736,4.61426 h 10.0196 v 0.791 q 0,6.54785 -3.7354,10.7666 -3.6914,4.21875 -12.2168,4.21875 -4.2187,0 -8.6133,-1.58203 -2.8125,-1.01075 -7.2949,-4.08692 v 4.35059 q 3.9111,2.41699 7.2949,3.42773 4.9218,1.4502 9.4483,1.4502 8.7011,0 14.3261,-5.27344 4.878,-4.52637 4.878,-17.05078 z m -54.8734,21.13771 h 4.043 v -49.21875 h -4.043 z m 0,19.16016 h 4.043 v -5.53711 h -4.043 z m -8.6377,-21.5332 v -4.30664 q -3.6474,2.24121 -6.0205,3.03222 -4.0869,1.27442 -7.8222,1.27442 -10.6348,0 -15.2491,-5.44922 -4.6142,-5.44922 -4.6142,-16.83106 0,-11.46972 4.6142,-16.91894 4.6143,-5.44922 15.2491,-5.44922 3.5156,0 6.9433,0.9668 3.4717,0.9229 6.8993,2.8125 v -4.08692 q -3.3838,-1.58203 -6.9872,-2.37304 -3.6474,-0.791 -7.207,-0.791 -10.8106,0 -17.1826,5.84473 -6.3721,5.88867 -6.3721,19.99511 0,14.10645 6.3721,19.99512 6.3719,5.84473 17.1826,5.84473 3.5156,0 7.4707,-1.01074 3.9551,-0.9668 6.7235,-2.54883 z m -54.6585,-6.06446 q -4.3506,6.06446 -11.8652,6.06446 -7.5148,0 -11.8653,-6.02051 -4.3946,-5.97656 -4.3946,-16.17188 0,-10.45898 4.3507,-16.43554 4.3506,-6.02051 11.9092,-6.02051 7.5146,0 11.8652,6.02051 4.3946,6.06445 4.3946,16.43554 0,10.06348 -4.3946,16.12793 z m -11.9092,9.62403 q 9.4043,0 14.8536,-7.03125 5.4931,-7.0752 5.4931,-18.76465 0,-12.08496 -5.4931,-19.07227 -5.4494,-7.03125 -14.8536,-7.03125 -9.4921,0 -14.9853,6.98731 -5.4492,6.9873 -5.4492,19.11621 0,11.82129 5.4931,18.80859 5.4932,6.98731 14.9414,6.98731 z m -27.7853,-2.63672 v -4.43848 q -4.2627,2.37305 -5.3174,2.63672 -3.0761,0.7471 -7.6465,0.8789 -6.9433,0 -10.8984,-2.76856 -3.0322,-2.28515 -3.0322,-7.82226 0,-3.73535 2.8564,-5.84473 3.0322,-2.28516 8.6572,-3.51562 l 2.7686,-0.6152 q 6.9873,-1.53809 10.5908,-4.35059 4.1748,-3.208 4.3946,-8.3496 0,-6.98731 -4.1309,-10.94239 -4.3945,-3.91113 -14.1504,-3.91113 -5.4492,0 -8.2617,0.7471 -3.3838,0.9668 -7.1192,2.3291 v 5.05371 q 5.3614,-3.07617 6.9434,-3.51562 4.3506,-1.14258 8.6133,-1.14258 7.1191,0 10.5029,2.94434 3.4277,2.98828 3.4277,7.82226 0,4.04297 -2.2851,5.88867 -3.2959,2.63672 -10.5029,4.30664 l -2.8125,0.6592 q -6.1963,1.4502 -9.4483,4.08692 -4.0869,3.2959 -4.0869,7.99804 0,7.73438 4.9219,11.11817 4.9219,3.38379 12.0849,3.38379 6.1084,0 8.4375,-0.6592 2.8125,-0.791 5.4932,-1.97754 z m -38.2501,0 v -4.43848 q -4.2628,2.37305 -5.3174,2.63672 -3.0762,0.7471 -7.6465,0.8789 -6.9433,0 -10.8984,-2.76856 -3.0322,-2.28515 -3.0322,-7.82226 0,-3.73535 2.8564,-5.84473 3.0322,-2.28516 8.6572,-3.51562 l 2.7686,-0.6152 q 6.9873,-1.53809 10.5908,-4.35059 4.1747,-3.208 4.3945,-8.3496 0,-6.98731 -4.1308,-10.94239 -4.3946,-3.91113 -14.1504,-3.91113 -5.4492,0 -8.2617,0.7471 -3.3838,0.9668 -7.1192,2.3291 v 5.05371 q 5.3613,-3.07617 6.9434,-3.51562 4.3506,-1.14258 8.6133,-1.14258 7.1191,0 10.5029,2.94434 3.4277,2.98828 3.4277,7.82226 0,4.04297 -2.2851,5.88867 -3.2959,2.63672 -10.503,4.30664 l -2.8125,0.6592 q -6.1963,1.4502 -9.4482,4.08692 -4.0869,3.2959 -4.0869,7.99804 0,7.73438 4.9219,11.11817 4.9218,3.38379 12.0849,3.38379 6.1084,0 8.4375,-0.6592 2.8125,-0.791 5.4932,-1.97754 z m -66.4646,13.40332 -14.0625,-36.91406 h 27.9053 z m -2.8125,4.43848 h 5.7569 l 25.0928,-65.61036 h -5.0098 l -7.8223,20.61036 h -30.6299 l -7.7783,-20.61036 h -4.6582 z"
           style="font-weight:300;font-size:9px;font-family:Lato;-inkscape-font-specification:Lato-Light;fill:#231f20;stroke-width:10" />
      </g>
    </g>
  </g>
</svg>
